ISO-10303-21;
HEADER;
FILE_DESCRIPTION(('FreeCAD Model'),'2;1');
FILE_NAME('Open CASCADE Shape Model','2026-01-17T20:28:02',(''),(''),
  'Open CASCADE STEP processor 7.7','FreeCAD','Unknown');
FILE_SCHEMA(('AUTOMOTIVE_DESIGN { 1 0 10303 214 1 1 1 1 }'));
ENDSEC;
DATA;
#1 = APPLICATION_PROTOCOL_DEFINITION('international standard',
  'automotive_design',2000,#2);
#2 = APPLICATION_CONTEXT(
  'core data for automotive mechanical design processes');
#3 = SHAPE_DEFINITION_REPRESENTATION(#4,#10);
#4 = PRODUCT_DEFINITION_SHAPE('','',#5);
#5 = PRODUCT_DEFINITION('design','',#6,#9);
#6 = PRODUCT_DEFINITION_FORMATION('','',#7);
#7 = PRODUCT('Pocket001','Pocket001','',(#8));
#8 = PRODUCT_CONTEXT('',#2,'mechanical');
#9 = PRODUCT_DEFINITION_CONTEXT('part definition',#2,'design');
#10 = ADVANCED_BREP_SHAPE_REPRESENTATION('',(#11,#15),#725);
#11 = AXIS2_PLACEMENT_3D('',#12,#13,#14);
#12 = CARTESIAN_POINT('',(0.,0.,0.));
#13 = DIRECTION('',(0.,0.,1.));
#14 = DIRECTION('',(1.,0.,-0.));
#15 = MANIFOLD_SOLID_BREP('',#16);
#16 = CLOSED_SHELL('',(#17,#105,#170,#193,#216,#233,#264,#288,#312,#336,
    #360,#377,#457,#538,#562,#594,#611,#633,#650,#667,#684,#701,#713));
#17 = ADVANCED_FACE('',(#18,#50),#100,.F.);
#18 = FACE_BOUND('',#19,.F.);
#19 = EDGE_LOOP('',(#20,#30,#37,#45));
#20 = ORIENTED_EDGE('',*,*,#21,.T.);
#21 = EDGE_CURVE('',#22,#24,#26,.T.);
#22 = VERTEX_POINT('',#23);
#23 = CARTESIAN_POINT('',(0.,0.,0.));
#24 = VERTEX_POINT('',#25);
#25 = CARTESIAN_POINT('',(10.,0.,0.));
#26 = LINE('',#27,#28);
#27 = CARTESIAN_POINT('',(0.,0.,0.));
#28 = VECTOR('',#29,1.);
#29 = DIRECTION('',(1.,0.,0.));
#30 = ORIENTED_EDGE('',*,*,#31,.T.);
#31 = EDGE_CURVE('',#24,#32,#34,.T.);
#32 = VERTEX_POINT('',#33);
#33 = CARTESIAN_POINT('',(9.589837213834,0.410162786166,-47.));
#34 = B_SPLINE_CURVE_WITH_KNOTS('',1,(#35,#36),.UNSPECIFIED.,.F.,.F.,(2,
    2),(0.,1.),.PIECEWISE_BEZIER_KNOTS.);
#35 = CARTESIAN_POINT('',(10.,0.,0.));
#36 = CARTESIAN_POINT('',(9.589837213834,0.410162786166,-47.));
#37 = ORIENTED_EDGE('',*,*,#38,.F.);
#38 = EDGE_CURVE('',#39,#32,#41,.T.);
#39 = VERTEX_POINT('',#40);
#40 = CARTESIAN_POINT('',(0.410162786166,0.410162786166,-47.));
#41 = LINE('',#42,#43);
#42 = CARTESIAN_POINT('',(0.,0.410162786166,-47.));
#43 = VECTOR('',#44,1.);
#44 = DIRECTION('',(1.,0.,0.));
#45 = ORIENTED_EDGE('',*,*,#46,.F.);
#46 = EDGE_CURVE('',#22,#39,#47,.T.);
#47 = B_SPLINE_CURVE_WITH_KNOTS('',1,(#48,#49),.UNSPECIFIED.,.F.,.F.,(2,
    2),(0.,1.),.PIECEWISE_BEZIER_KNOTS.);
#48 = CARTESIAN_POINT('',(0.,0.,0.));
#49 = CARTESIAN_POINT('',(0.410162786166,0.410162786166,-47.));
#50 = FACE_BOUND('',#51,.F.);
#51 = EDGE_LOOP('',(#52,#62,#70,#78,#86,#94));
#52 = ORIENTED_EDGE('',*,*,#53,.F.);
#53 = EDGE_CURVE('',#54,#56,#58,.T.);
#54 = VERTEX_POINT('',#55);
#55 = CARTESIAN_POINT('',(8.5,0.344713769928,-39.50028557701));
#56 = VERTEX_POINT('',#57);
#57 = CARTESIAN_POINT('',(5.,0.375256644172,-43.00015230774));
#58 = LINE('',#59,#60);
#59 = CARTESIAN_POINT('',(8.5,0.344713769928,-39.50028557701));
#60 = VECTOR('',#61,1.);
#61 = DIRECTION('',(-0.707106781187,6.170592427165E-03,-0.707079856727)
  );
#62 = ORIENTED_EDGE('',*,*,#63,.T.);
#63 = EDGE_CURVE('',#54,#64,#66,.T.);
#64 = VERTEX_POINT('',#65);
#65 = CARTESIAN_POINT('',(8.5,4.799594524106E-02,-5.499790576853));
#66 = LINE('',#67,#68);
#67 = CARTESIAN_POINT('',(8.5,0.344713769928,-39.50028557701));
#68 = VECTOR('',#69,1.);
#69 = DIRECTION('',(0.,-8.726535498374E-03,0.999961923064));
#70 = ORIENTED_EDGE('',*,*,#71,.T.);
#71 = EDGE_CURVE('',#64,#72,#74,.T.);
#72 = VERTEX_POINT('',#73);
#73 = CARTESIAN_POINT('',(5.,1.745307099675E-02,-1.999923846128));
#74 = LINE('',#75,#76);
#75 = CARTESIAN_POINT('',(8.5,4.799594524106E-02,-5.499790576853));
#76 = VECTOR('',#77,1.);
#77 = DIRECTION('',(-0.707106781187,-6.170592427165E-03,0.707079856727)
  );
#78 = ORIENTED_EDGE('',*,*,#79,.F.);
#79 = EDGE_CURVE('',#80,#72,#82,.T.);
#80 = VERTEX_POINT('',#81);
#81 = CARTESIAN_POINT('',(1.5,4.799594524106E-02,-5.499790576853));
#82 = LINE('',#83,#84);
#83 = CARTESIAN_POINT('',(1.5,4.799594524106E-02,-5.499790576853));
#84 = VECTOR('',#85,1.);
#85 = DIRECTION('',(0.707106781187,-6.170592427165E-03,0.707079856727));
#86 = ORIENTED_EDGE('',*,*,#87,.T.);
#87 = EDGE_CURVE('',#80,#88,#90,.T.);
#88 = VERTEX_POINT('',#89);
#89 = CARTESIAN_POINT('',(1.5,0.344713769928,-39.50028557701));
#90 = LINE('',#91,#92);
#91 = CARTESIAN_POINT('',(1.5,4.799594524106E-02,-5.499790576853));
#92 = VECTOR('',#93,1.);
#93 = DIRECTION('',(0.,8.726535498374E-03,-0.999961923064));
#94 = ORIENTED_EDGE('',*,*,#95,.T.);
#95 = EDGE_CURVE('',#88,#56,#96,.T.);
#96 = LINE('',#97,#98);
#97 = CARTESIAN_POINT('',(1.5,0.344713769928,-39.50028557701));
#98 = VECTOR('',#99,1.);
#99 = DIRECTION('',(0.707106781187,6.170592427165E-03,-0.707079856727));
#100 = B_SPLINE_SURFACE_WITH_KNOTS('',1,1,(
    (#101,#102)
    ,(#103,#104
  )),.UNSPECIFIED.,.F.,.F.,.F.,(2,2),(2,2),(0.,10.),(0.,1.),
  .PIECEWISE_BEZIER_KNOTS.);
#101 = CARTESIAN_POINT('',(0.,0.,0.));
#102 = CARTESIAN_POINT('',(0.410162786166,0.410162786166,-47.));
#103 = CARTESIAN_POINT('',(10.,0.,0.));
#104 = CARTESIAN_POINT('',(9.589837213834,0.410162786166,-47.));
#105 = ADVANCED_FACE('',(#106,#131),#165,.F.);
#106 = FACE_BOUND('',#107,.F.);
#107 = EDGE_LOOP('',(#108,#109,#117,#125));
#108 = ORIENTED_EDGE('',*,*,#21,.F.);
#109 = ORIENTED_EDGE('',*,*,#110,.F.);
#110 = EDGE_CURVE('',#111,#22,#113,.T.);
#111 = VERTEX_POINT('',#112);
#112 = CARTESIAN_POINT('',(0.,10.,0.));
#113 = LINE('',#114,#115);
#114 = CARTESIAN_POINT('',(0.,10.,0.));
#115 = VECTOR('',#116,1.);
#116 = DIRECTION('',(0.,-1.,0.));
#117 = ORIENTED_EDGE('',*,*,#118,.F.);
#118 = EDGE_CURVE('',#119,#111,#121,.T.);
#119 = VERTEX_POINT('',#120);
#120 = CARTESIAN_POINT('',(10.,10.,0.));
#121 = LINE('',#122,#123);
#122 = CARTESIAN_POINT('',(10.,10.,0.));
#123 = VECTOR('',#124,1.);
#124 = DIRECTION('',(-1.,0.,0.));
#125 = ORIENTED_EDGE('',*,*,#126,.F.);
#126 = EDGE_CURVE('',#24,#119,#127,.T.);
#127 = LINE('',#128,#129);
#128 = CARTESIAN_POINT('',(10.,0.,0.));
#129 = VECTOR('',#130,1.);
#130 = DIRECTION('',(0.,1.,0.));
#131 = FACE_BOUND('',#132,.F.);
#132 = EDGE_LOOP('',(#133,#143,#151,#159));
#133 = ORIENTED_EDGE('',*,*,#134,.T.);
#134 = EDGE_CURVE('',#135,#137,#139,.T.);
#135 = VERTEX_POINT('',#136);
#136 = CARTESIAN_POINT('',(9.2,5.5,0.));
#137 = VERTEX_POINT('',#138);
#138 = CARTESIAN_POINT('',(0.8,5.5,0.));
#139 = LINE('',#140,#141);
#140 = CARTESIAN_POINT('',(9.2,5.5,0.));
#141 = VECTOR('',#142,1.);
#142 = DIRECTION('',(-1.,0.,0.));
#143 = ORIENTED_EDGE('',*,*,#144,.T.);
#144 = EDGE_CURVE('',#137,#145,#147,.T.);
#145 = VERTEX_POINT('',#146);
#146 = CARTESIAN_POINT('',(0.8,4.5,0.));
#147 = LINE('',#148,#149);
#148 = CARTESIAN_POINT('',(0.8,5.5,0.));
#149 = VECTOR('',#150,1.);
#150 = DIRECTION('',(0.,-1.,0.));
#151 = ORIENTED_EDGE('',*,*,#152,.T.);
#152 = EDGE_CURVE('',#145,#153,#155,.T.);
#153 = VERTEX_POINT('',#154);
#154 = CARTESIAN_POINT('',(9.2,4.5,0.));
#155 = LINE('',#156,#157);
#156 = CARTESIAN_POINT('',(0.8,4.5,0.));
#157 = VECTOR('',#158,1.);
#158 = DIRECTION('',(1.,0.,0.));
#159 = ORIENTED_EDGE('',*,*,#160,.T.);
#160 = EDGE_CURVE('',#153,#135,#161,.T.);
#161 = LINE('',#162,#163);
#162 = CARTESIAN_POINT('',(9.2,4.5,0.));
#163 = VECTOR('',#164,1.);
#164 = DIRECTION('',(0.,1.,0.));
#165 = PLANE('',#166);
#166 = AXIS2_PLACEMENT_3D('',#167,#168,#169);
#167 = CARTESIAN_POINT('',(0.,0.,0.));
#168 = DIRECTION('',(0.,0.,-1.));
#169 = DIRECTION('',(0.707106781187,0.707106781187,0.));
#170 = ADVANCED_FACE('',(#171),#188,.F.);
#171 = FACE_BOUND('',#172,.F.);
#172 = EDGE_LOOP('',(#173,#174,#175,#183));
#173 = ORIENTED_EDGE('',*,*,#110,.T.);
#174 = ORIENTED_EDGE('',*,*,#46,.T.);
#175 = ORIENTED_EDGE('',*,*,#176,.F.);
#176 = EDGE_CURVE('',#177,#39,#179,.T.);
#177 = VERTEX_POINT('',#178);
#178 = CARTESIAN_POINT('',(0.410162786166,9.589837213834,-47.));
#179 = LINE('',#180,#181);
#180 = CARTESIAN_POINT('',(0.410162786166,10.,-47.));
#181 = VECTOR('',#182,1.);
#182 = DIRECTION('',(0.,-1.,0.));
#183 = ORIENTED_EDGE('',*,*,#184,.F.);
#184 = EDGE_CURVE('',#111,#177,#185,.T.);
#185 = B_SPLINE_CURVE_WITH_KNOTS('',1,(#186,#187),.UNSPECIFIED.,.F.,.F.,
  (2,2),(0.,1.),.PIECEWISE_BEZIER_KNOTS.);
#186 = CARTESIAN_POINT('',(0.,10.,0.));
#187 = CARTESIAN_POINT('',(0.410162786166,9.589837213834,-47.));
#188 = B_SPLINE_SURFACE_WITH_KNOTS('',1,1,(
    (#189,#190)
    ,(#191,#192
  )),.UNSPECIFIED.,.F.,.F.,.F.,(2,2),(2,2),(0.,10.),(0.,1.),
  .PIECEWISE_BEZIER_KNOTS.);
#189 = CARTESIAN_POINT('',(0.,10.,0.));
#190 = CARTESIAN_POINT('',(0.410162786166,9.589837213834,-47.));
#191 = CARTESIAN_POINT('',(0.,0.,0.));
#192 = CARTESIAN_POINT('',(0.410162786166,0.410162786166,-47.));
#193 = ADVANCED_FACE('',(#194),#211,.F.);
#194 = FACE_BOUND('',#195,.F.);
#195 = EDGE_LOOP('',(#196,#197,#204,#210));
#196 = ORIENTED_EDGE('',*,*,#126,.T.);
#197 = ORIENTED_EDGE('',*,*,#198,.T.);
#198 = EDGE_CURVE('',#119,#199,#201,.T.);
#199 = VERTEX_POINT('',#200);
#200 = CARTESIAN_POINT('',(9.589837213834,9.589837213834,-47.));
#201 = B_SPLINE_CURVE_WITH_KNOTS('',1,(#202,#203),.UNSPECIFIED.,.F.,.F.,
  (2,2),(0.,1.),.PIECEWISE_BEZIER_KNOTS.);
#202 = CARTESIAN_POINT('',(10.,10.,0.));
#203 = CARTESIAN_POINT('',(9.589837213834,9.589837213834,-47.));
#204 = ORIENTED_EDGE('',*,*,#205,.F.);
#205 = EDGE_CURVE('',#32,#199,#206,.T.);
#206 = LINE('',#207,#208);
#207 = CARTESIAN_POINT('',(9.589837213834,0.,-47.));
#208 = VECTOR('',#209,1.);
#209 = DIRECTION('',(0.,1.,0.));
#210 = ORIENTED_EDGE('',*,*,#31,.F.);
#211 = B_SPLINE_SURFACE_WITH_KNOTS('',1,1,(
    (#212,#213)
    ,(#214,#215
  )),.UNSPECIFIED.,.F.,.F.,.F.,(2,2),(2,2),(0.,10.),(0.,1.),
  .PIECEWISE_BEZIER_KNOTS.);
#212 = CARTESIAN_POINT('',(10.,0.,0.));
#213 = CARTESIAN_POINT('',(9.589837213834,0.410162786166,-47.));
#214 = CARTESIAN_POINT('',(10.,10.,0.));
#215 = CARTESIAN_POINT('',(9.589837213834,9.589837213834,-47.));
#216 = ADVANCED_FACE('',(#217),#228,.T.);
#217 = FACE_BOUND('',#218,.F.);
#218 = EDGE_LOOP('',(#219,#220,#221,#227));
#219 = ORIENTED_EDGE('',*,*,#38,.T.);
#220 = ORIENTED_EDGE('',*,*,#205,.T.);
#221 = ORIENTED_EDGE('',*,*,#222,.T.);
#222 = EDGE_CURVE('',#199,#177,#223,.T.);
#223 = LINE('',#224,#225);
#224 = CARTESIAN_POINT('',(10.,9.589837213834,-47.));
#225 = VECTOR('',#226,1.);
#226 = DIRECTION('',(-1.,0.,0.));
#227 = ORIENTED_EDGE('',*,*,#176,.T.);
#228 = PLANE('',#229);
#229 = AXIS2_PLACEMENT_3D('',#230,#231,#232);
#230 = CARTESIAN_POINT('',(0.410162786166,0.410162786166,-47.));
#231 = DIRECTION('',(0.,0.,-1.));
#232 = DIRECTION('',(0.707106781187,0.707106781187,0.));
#233 = ADVANCED_FACE('',(#234),#259,.T.);
#234 = FACE_BOUND('',#235,.T.);
#235 = EDGE_LOOP('',(#236,#237,#245,#253));
#236 = ORIENTED_EDGE('',*,*,#53,.F.);
#237 = ORIENTED_EDGE('',*,*,#238,.T.);
#238 = EDGE_CURVE('',#54,#239,#241,.T.);
#239 = VERTEX_POINT('',#240);
#240 = CARTESIAN_POINT('',(8.5,4.5,-39.50028557701));
#241 = LINE('',#242,#243);
#242 = CARTESIAN_POINT('',(8.5,0.344713769928,-39.50028557701));
#243 = VECTOR('',#244,1.);
#244 = DIRECTION('',(0.,1.,0.));
#245 = ORIENTED_EDGE('',*,*,#246,.T.);
#246 = EDGE_CURVE('',#239,#247,#249,.T.);
#247 = VERTEX_POINT('',#248);
#248 = CARTESIAN_POINT('',(5.,4.5,-43.00015230774));
#249 = LINE('',#250,#251);
#250 = CARTESIAN_POINT('',(16.449998087599,4.5,-31.55059020098));
#251 = VECTOR('',#252,1.);
#252 = DIRECTION('',(-0.707120243544,-0.,-0.707093318572));
#253 = ORIENTED_EDGE('',*,*,#254,.F.);
#254 = EDGE_CURVE('',#56,#247,#255,.T.);
#255 = LINE('',#256,#257);
#256 = CARTESIAN_POINT('',(5.,0.375256644172,-43.00015230774));
#257 = VECTOR('',#258,1.);
#258 = DIRECTION('',(0.,1.,0.));
#259 = PLANE('',#260);
#260 = AXIS2_PLACEMENT_3D('',#261,#262,#263);
#261 = CARTESIAN_POINT('',(8.5,0.344713769928,-39.50028557701));
#262 = DIRECTION('',(-0.707093318572,0.,0.707120243544));
#263 = DIRECTION('',(-0.707106781187,6.170592427165E-03,-0.707079856727)
  );
#264 = ADVANCED_FACE('',(#265),#283,.F.);
#265 = FACE_BOUND('',#266,.F.);
#266 = EDGE_LOOP('',(#267,#268,#276,#282));
#267 = ORIENTED_EDGE('',*,*,#95,.F.);
#268 = ORIENTED_EDGE('',*,*,#269,.T.);
#269 = EDGE_CURVE('',#88,#270,#272,.T.);
#270 = VERTEX_POINT('',#271);
#271 = CARTESIAN_POINT('',(1.5,4.5,-39.50028557701));
#272 = LINE('',#273,#274);
#273 = CARTESIAN_POINT('',(1.5,0.344713769928,-39.50028557701));
#274 = VECTOR('',#275,1.);
#275 = DIRECTION('',(0.,1.,0.));
#276 = ORIENTED_EDGE('',*,*,#277,.T.);
#277 = EDGE_CURVE('',#270,#247,#278,.T.);
#278 = LINE('',#279,#280);
#279 = CARTESIAN_POINT('',(-8.550078050686,4.5,-29.4505902025));
#280 = VECTOR('',#281,1.);
#281 = DIRECTION('',(0.707120243544,0.,-0.707093318572));
#282 = ORIENTED_EDGE('',*,*,#254,.F.);
#283 = PLANE('',#284);
#284 = AXIS2_PLACEMENT_3D('',#285,#286,#287);
#285 = CARTESIAN_POINT('',(1.5,0.344713769928,-39.50028557701));
#286 = DIRECTION('',(-0.707093318572,0.,-0.707120243544));
#287 = DIRECTION('',(0.707106781187,6.170592427165E-03,-0.707079856727)
  );
#288 = ADVANCED_FACE('',(#289),#307,.F.);
#289 = FACE_BOUND('',#290,.F.);
#290 = EDGE_LOOP('',(#291,#292,#300,#306));
#291 = ORIENTED_EDGE('',*,*,#87,.F.);
#292 = ORIENTED_EDGE('',*,*,#293,.T.);
#293 = EDGE_CURVE('',#80,#294,#296,.T.);
#294 = VERTEX_POINT('',#295);
#295 = CARTESIAN_POINT('',(1.5,4.5,-5.499790576853));
#296 = LINE('',#297,#298);
#297 = CARTESIAN_POINT('',(1.5,4.799594524106E-02,-5.499790576853));
#298 = VECTOR('',#299,1.);
#299 = DIRECTION('',(0.,1.,0.));
#300 = ORIENTED_EDGE('',*,*,#301,.T.);
#301 = EDGE_CURVE('',#294,#270,#302,.T.);
#302 = LINE('',#303,#304);
#303 = CARTESIAN_POINT('',(1.5,4.5,-2.749895288426));
#304 = VECTOR('',#305,1.);
#305 = DIRECTION('',(-0.,-0.,-1.));
#306 = ORIENTED_EDGE('',*,*,#269,.F.);
#307 = PLANE('',#308);
#308 = AXIS2_PLACEMENT_3D('',#309,#310,#311);
#309 = CARTESIAN_POINT('',(1.5,4.799594524106E-02,-5.499790576853));
#310 = DIRECTION('',(-1.,0.,0.));
#311 = DIRECTION('',(0.,8.726535498374E-03,-0.999961923064));
#312 = ADVANCED_FACE('',(#313),#331,.T.);
#313 = FACE_BOUND('',#314,.T.);
#314 = EDGE_LOOP('',(#315,#316,#317,#325));
#315 = ORIENTED_EDGE('',*,*,#79,.F.);
#316 = ORIENTED_EDGE('',*,*,#293,.T.);
#317 = ORIENTED_EDGE('',*,*,#318,.T.);
#318 = EDGE_CURVE('',#294,#319,#321,.T.);
#319 = VERTEX_POINT('',#320);
#320 = CARTESIAN_POINT('',(5.,4.5,-1.999923846128));
#321 = LINE('',#322,#323);
#322 = CARTESIAN_POINT('',(2.699940979626,4.5,-4.299895287303));
#323 = VECTOR('',#324,1.);
#324 = DIRECTION('',(0.707120243544,0.,0.707093318572));
#325 = ORIENTED_EDGE('',*,*,#326,.F.);
#326 = EDGE_CURVE('',#72,#319,#327,.T.);
#327 = LINE('',#328,#329);
#328 = CARTESIAN_POINT('',(5.,1.745307099675E-02,-1.999923846128));
#329 = VECTOR('',#330,1.);
#330 = DIRECTION('',(0.,1.,0.));
#331 = PLANE('',#332);
#332 = AXIS2_PLACEMENT_3D('',#333,#334,#335);
#333 = CARTESIAN_POINT('',(1.5,4.799594524106E-02,-5.499790576853));
#334 = DIRECTION('',(0.707093318572,0.,-0.707120243544));
#335 = DIRECTION('',(0.707106781187,-6.170592427165E-03,0.707079856727)
  );
#336 = ADVANCED_FACE('',(#337),#355,.F.);
#337 = FACE_BOUND('',#338,.F.);
#338 = EDGE_LOOP('',(#339,#340,#348,#354));
#339 = ORIENTED_EDGE('',*,*,#71,.F.);
#340 = ORIENTED_EDGE('',*,*,#341,.T.);
#341 = EDGE_CURVE('',#64,#342,#344,.T.);
#342 = VERTEX_POINT('',#343);
#343 = CARTESIAN_POINT('',(8.5,4.5,-5.499790576853));
#344 = LINE('',#345,#346);
#345 = CARTESIAN_POINT('',(8.5,4.799594524106E-02,-5.499790576853));
#346 = VECTOR('',#347,1.);
#347 = DIRECTION('',(0.,1.,0.));
#348 = ORIENTED_EDGE('',*,*,#349,.T.);
#349 = EDGE_CURVE('',#342,#319,#350,.T.);
#350 = LINE('',#351,#352);
#351 = CARTESIAN_POINT('',(5.199979057287,4.5,-2.199895288825));
#352 = VECTOR('',#353,1.);
#353 = DIRECTION('',(-0.707120243544,0.,0.707093318572));
#354 = ORIENTED_EDGE('',*,*,#326,.F.);
#355 = PLANE('',#356);
#356 = AXIS2_PLACEMENT_3D('',#357,#358,#359);
#357 = CARTESIAN_POINT('',(8.5,4.799594524106E-02,-5.499790576853));
#358 = DIRECTION('',(0.707093318572,-0.,0.707120243544));
#359 = DIRECTION('',(-0.707106781187,-6.170592427165E-03,0.707079856727)
  );
#360 = ADVANCED_FACE('',(#361),#372,.F.);
#361 = FACE_BOUND('',#362,.F.);
#362 = EDGE_LOOP('',(#363,#364,#365,#371));
#363 = ORIENTED_EDGE('',*,*,#63,.F.);
#364 = ORIENTED_EDGE('',*,*,#238,.T.);
#365 = ORIENTED_EDGE('',*,*,#366,.T.);
#366 = EDGE_CURVE('',#239,#342,#367,.T.);
#367 = LINE('',#368,#369);
#368 = CARTESIAN_POINT('',(8.5,4.5,-19.7501427885));
#369 = VECTOR('',#370,1.);
#370 = DIRECTION('',(0.,0.,1.));
#371 = ORIENTED_EDGE('',*,*,#341,.F.);
#372 = PLANE('',#373);
#373 = AXIS2_PLACEMENT_3D('',#374,#375,#376);
#374 = CARTESIAN_POINT('',(8.5,0.344713769928,-39.50028557701));
#375 = DIRECTION('',(1.,0.,-0.));
#376 = DIRECTION('',(0.,-8.726535498374E-03,0.999961923064));
#377 = ADVANCED_FACE('',(#378,#384),#452,.F.);
#378 = FACE_BOUND('',#379,.F.);
#379 = EDGE_LOOP('',(#380,#381,#382,#383));
#380 = ORIENTED_EDGE('',*,*,#118,.T.);
#381 = ORIENTED_EDGE('',*,*,#184,.T.);
#382 = ORIENTED_EDGE('',*,*,#222,.F.);
#383 = ORIENTED_EDGE('',*,*,#198,.F.);
#384 = FACE_BOUND('',#385,.F.);
#385 = EDGE_LOOP('',(#386,#398,#411,#421,#431,#444));
#386 = ORIENTED_EDGE('',*,*,#387,.T.);
#387 = EDGE_CURVE('',#388,#390,#392,.T.);
#388 = VERTEX_POINT('',#389);
#389 = CARTESIAN_POINT('',(5.,9.982546929003,-1.999923846128));
#390 = VERTEX_POINT('',#391);
#391 = CARTESIAN_POINT('',(8.5,9.952004054759,-5.499790576853));
#392 = B_SPLINE_CURVE_WITH_KNOTS('',4,(#393,#394,#395,#396,#397),
  .UNSPECIFIED.,.F.,.F.,(5,5),(0.,1.),.PIECEWISE_BEZIER_KNOTS.);
#393 = CARTESIAN_POINT('',(4.956516315964,9.982926390916,-1.956441817818
    ));
#394 = CARTESIAN_POINT('',(6.088140711758,9.973051230455,-3.088023124822
    ));
#395 = CARTESIAN_POINT('',(7.217763082993,9.963193540733,-4.217602483498
    ));
#396 = CARTESIAN_POINT('',(8.345364881757,9.953353483608,-5.345161346642
    ));
#397 = CARTESIAN_POINT('',(9.470927870696,9.943531218229,-6.47068147759)
  );
#398 = ORIENTED_EDGE('',*,*,#399,.T.);
#399 = EDGE_CURVE('',#390,#400,#402,.T.);
#400 = VERTEX_POINT('',#401);
#401 = CARTESIAN_POINT('',(8.5,9.655286230072,-39.50028557701));
#402 = B_SPLINE_CURVE_WITH_KNOTS('',4,(#403,#404,#405,#406,#407,#408,
    #409,#410),.UNSPECIFIED.,.F.,.F.,(5,3,5),(0.,0.50062270029,1.),
  .UNSPECIFIED.);
#403 = CARTESIAN_POINT('',(8.5,9.95275838385,-5.413353024552));
#404 = CARTESIAN_POINT('',(8.5,9.913401281982,-9.923230200631));
#405 = CARTESIAN_POINT('',(8.5,9.874044212425,-14.43310367415));
#406 = CARTESIAN_POINT('',(8.5,9.834687177736,-18.94297315233));
#407 = CARTESIAN_POINT('',(8.5,9.756071092812,-27.95148420213));
#408 = CARTESIAN_POINT('',(8.5,9.716812042396,-32.45012579467));
#409 = CARTESIAN_POINT('',(8.5,9.677553032845,-36.94876270461));
#410 = CARTESIAN_POINT('',(8.5,9.638294067916,-41.4473945013));
#411 = ORIENTED_EDGE('',*,*,#412,.F.);
#412 = EDGE_CURVE('',#413,#400,#415,.T.);
#413 = VERTEX_POINT('',#414);
#414 = CARTESIAN_POINT('',(5.,9.624743355828,-43.00015230774));
#415 = B_SPLINE_CURVE_WITH_KNOTS('',4,(#416,#417,#418,#419,#420),
  .UNSPECIFIED.,.F.,.F.,(5,5),(0.,1.),.PIECEWISE_BEZIER_KNOTS.);
#416 = CARTESIAN_POINT('',(4.026216059701,9.616245595705,-43.97389916933
    ));
#417 = CARTESIAN_POINT('',(5.15129306376,9.626063620119,-42.84886500475)
  );
#418 = CARTESIAN_POINT('',(6.278734320441,9.635902276268,-41.72146667758
    ));
#419 = CARTESIAN_POINT('',(7.408519423614,9.645761386077,-40.59172459316
    ));
#420 = CARTESIAN_POINT('',(8.540627614433,9.655640768392,-39.45965950956
    ));
#421 = ORIENTED_EDGE('',*,*,#422,.F.);
#422 = EDGE_CURVE('',#423,#413,#425,.T.);
#423 = VERTEX_POINT('',#424);
#424 = CARTESIAN_POINT('',(1.5,9.655286230072,-39.50028557701));
#425 = B_SPLINE_CURVE_WITH_KNOTS('',4,(#426,#427,#428,#429,#430),
  .UNSPECIFIED.,.F.,.F.,(5,5),(0.,1.),.PIECEWISE_BEZIER_KNOTS.);
#426 = CARTESIAN_POINT('',(1.459372385567,9.655640768392,-39.45965950956
    ));
#427 = CARTESIAN_POINT('',(2.591480574567,9.645761386092,-40.59172459135
    ));
#428 = CARTESIAN_POINT('',(3.721265703779,9.635902276057,-41.7214667018)
  );
#429 = CARTESIAN_POINT('',(4.848706938522,9.626063620099,-42.84886500704
    ));
#430 = CARTESIAN_POINT('',(5.973783940299,9.616245595705,-43.97389916933
    ));
#431 = ORIENTED_EDGE('',*,*,#432,.F.);
#432 = EDGE_CURVE('',#433,#423,#435,.T.);
#433 = VERTEX_POINT('',#434);
#434 = CARTESIAN_POINT('',(1.5,9.952004054759,-5.499790576853));
#435 = B_SPLINE_CURVE_WITH_KNOTS('',4,(#436,#437,#438,#439,#440,#441,
    #442,#443),.UNSPECIFIED.,.F.,.F.,(5,3,5),(0.,0.50062270029,1.),
  .UNSPECIFIED.);
#436 = CARTESIAN_POINT('',(1.5,9.95275838385,-5.413353024552));
#437 = CARTESIAN_POINT('',(1.5,9.913401281982,-9.923230200631));
#438 = CARTESIAN_POINT('',(1.5,9.874044212425,-14.43310367415));
#439 = CARTESIAN_POINT('',(1.5,9.834687177736,-18.94297315233));
#440 = CARTESIAN_POINT('',(1.5,9.756071092812,-27.95148420213));
#441 = CARTESIAN_POINT('',(1.5,9.716812042396,-32.45012579467));
#442 = CARTESIAN_POINT('',(1.5,9.677553032845,-36.94876270461));
#443 = CARTESIAN_POINT('',(1.5,9.638294067916,-41.4473945013));
#444 = ORIENTED_EDGE('',*,*,#445,.F.);
#445 = EDGE_CURVE('',#388,#433,#446,.T.);
#446 = B_SPLINE_CURVE_WITH_KNOTS('',4,(#447,#448,#449,#450,#451),
  .UNSPECIFIED.,.F.,.F.,(5,5),(0.,1.),.PIECEWISE_BEZIER_KNOTS.);
#447 = CARTESIAN_POINT('',(5.043483684036,9.982926390916,-1.956441817818
    ));
#448 = CARTESIAN_POINT('',(3.911859288242,9.973051230455,-3.088023124822
    ));
#449 = CARTESIAN_POINT('',(2.782236917007,9.963193540733,-4.217602483498
    ));
#450 = CARTESIAN_POINT('',(1.654635118243,9.953353483608,-5.345161346642
    ));
#451 = CARTESIAN_POINT('',(0.529072129304,9.943531218229,-6.47068147759)
  );
#452 = B_SPLINE_SURFACE_WITH_KNOTS('',1,1,(
    (#453,#454)
    ,(#455,#456
  )),.UNSPECIFIED.,.F.,.F.,.F.,(2,2),(2,2),(0.,10.),(0.,1.),
  .PIECEWISE_BEZIER_KNOTS.);
#453 = CARTESIAN_POINT('',(10.,10.,0.));
#454 = CARTESIAN_POINT('',(9.589837213834,9.589837213834,-47.));
#455 = CARTESIAN_POINT('',(0.,10.,0.));
#456 = CARTESIAN_POINT('',(0.410162786166,9.589837213834,-47.));
#457 = ADVANCED_FACE('',(#458,#483),#533,.F.);
#458 = FACE_BOUND('',#459,.F.);
#459 = EDGE_LOOP('',(#460,#461,#469,#477));
#460 = ORIENTED_EDGE('',*,*,#134,.F.);
#461 = ORIENTED_EDGE('',*,*,#462,.T.);
#462 = EDGE_CURVE('',#135,#463,#465,.T.);
#463 = VERTEX_POINT('',#464);
#464 = CARTESIAN_POINT('',(9.2,5.5,-44.));
#465 = LINE('',#466,#467);
#466 = CARTESIAN_POINT('',(9.2,5.5,0.));
#467 = VECTOR('',#468,1.);
#468 = DIRECTION('',(-0.,-0.,-1.));
#469 = ORIENTED_EDGE('',*,*,#470,.T.);
#470 = EDGE_CURVE('',#463,#471,#473,.T.);
#471 = VERTEX_POINT('',#472);
#472 = CARTESIAN_POINT('',(0.8,5.5,-44.));
#473 = LINE('',#474,#475);
#474 = CARTESIAN_POINT('',(4.805081393083,5.5,-44.));
#475 = VECTOR('',#476,1.);
#476 = DIRECTION('',(-1.,0.,0.));
#477 = ORIENTED_EDGE('',*,*,#478,.F.);
#478 = EDGE_CURVE('',#137,#471,#479,.T.);
#479 = LINE('',#480,#481);
#480 = CARTESIAN_POINT('',(0.8,5.5,0.));
#481 = VECTOR('',#482,1.);
#482 = DIRECTION('',(-0.,-0.,-1.));
#483 = FACE_BOUND('',#484,.F.);
#484 = EDGE_LOOP('',(#485,#495,#503,#511,#519,#527));
#485 = ORIENTED_EDGE('',*,*,#486,.F.);
#486 = EDGE_CURVE('',#487,#489,#491,.T.);
#487 = VERTEX_POINT('',#488);
#488 = CARTESIAN_POINT('',(8.5,5.5,-5.499790576853));
#489 = VERTEX_POINT('',#490);
#490 = CARTESIAN_POINT('',(8.5,5.5,-39.50028557701));
#491 = LINE('',#492,#493);
#492 = CARTESIAN_POINT('',(8.5,5.5,-19.7501427885));
#493 = VECTOR('',#494,1.);
#494 = DIRECTION('',(-0.,0.,-1.));
#495 = ORIENTED_EDGE('',*,*,#496,.F.);
#496 = EDGE_CURVE('',#497,#487,#499,.T.);
#497 = VERTEX_POINT('',#498);
#498 = CARTESIAN_POINT('',(5.,5.5,-1.999923846128));
#499 = LINE('',#500,#501);
#500 = CARTESIAN_POINT('',(7.300059020374,5.5,-4.299895287303));
#501 = VECTOR('',#502,1.);
#502 = DIRECTION('',(0.707120243544,0.,-0.707093318572));
#503 = ORIENTED_EDGE('',*,*,#504,.T.);
#504 = EDGE_CURVE('',#497,#505,#507,.T.);
#505 = VERTEX_POINT('',#506);
#506 = CARTESIAN_POINT('',(1.5,5.5,-5.499790576853));
#507 = LINE('',#508,#509);
#508 = CARTESIAN_POINT('',(4.800020942713,5.5,-2.199895288825));
#509 = VECTOR('',#510,1.);
#510 = DIRECTION('',(-0.707120243544,0.,-0.707093318572));
#511 = ORIENTED_EDGE('',*,*,#512,.F.);
#512 = EDGE_CURVE('',#513,#505,#515,.T.);
#513 = VERTEX_POINT('',#514);
#514 = CARTESIAN_POINT('',(1.5,5.5,-39.50028557701));
#515 = LINE('',#516,#517);
#516 = CARTESIAN_POINT('',(1.5,5.5,-2.749895288426));
#517 = VECTOR('',#518,1.);
#518 = DIRECTION('',(0.,-0.,1.));
#519 = ORIENTED_EDGE('',*,*,#520,.F.);
#520 = EDGE_CURVE('',#521,#513,#523,.T.);
#521 = VERTEX_POINT('',#522);
#522 = CARTESIAN_POINT('',(5.,5.5,-43.00015230774));
#523 = LINE('',#524,#525);
#524 = CARTESIAN_POINT('',(-6.449998087599,5.5,-31.55059020098));
#525 = VECTOR('',#526,1.);
#526 = DIRECTION('',(-0.707120243544,0.,0.707093318572));
#527 = ORIENTED_EDGE('',*,*,#528,.T.);
#528 = EDGE_CURVE('',#521,#489,#529,.T.);
#529 = LINE('',#530,#531);
#530 = CARTESIAN_POINT('',(18.550078050686,5.5,-29.4505902025));
#531 = VECTOR('',#532,1.);
#532 = DIRECTION('',(0.707120243544,-0.,0.707093318572));
#533 = PLANE('',#534);
#534 = AXIS2_PLACEMENT_3D('',#535,#536,#537);
#535 = CARTESIAN_POINT('',(9.2,5.5,0.));
#536 = DIRECTION('',(0.,1.,0.));
#537 = DIRECTION('',(-1.,0.,0.));
#538 = ADVANCED_FACE('',(#539),#557,.F.);
#539 = FACE_BOUND('',#540,.F.);
#540 = EDGE_LOOP('',(#541,#542,#550,#556));
#541 = ORIENTED_EDGE('',*,*,#160,.F.);
#542 = ORIENTED_EDGE('',*,*,#543,.T.);
#543 = EDGE_CURVE('',#153,#544,#546,.T.);
#544 = VERTEX_POINT('',#545);
#545 = CARTESIAN_POINT('',(9.2,4.5,-44.));
#546 = LINE('',#547,#548);
#547 = CARTESIAN_POINT('',(9.2,4.5,0.));
#548 = VECTOR('',#549,1.);
#549 = DIRECTION('',(-0.,-0.,-1.));
#550 = ORIENTED_EDGE('',*,*,#551,.T.);
#551 = EDGE_CURVE('',#544,#463,#552,.T.);
#552 = LINE('',#553,#554);
#553 = CARTESIAN_POINT('',(9.2,2.455081393083,-44.));
#554 = VECTOR('',#555,1.);
#555 = DIRECTION('',(0.,1.,0.));
#556 = ORIENTED_EDGE('',*,*,#462,.F.);
#557 = PLANE('',#558);
#558 = AXIS2_PLACEMENT_3D('',#559,#560,#561);
#559 = CARTESIAN_POINT('',(9.2,4.5,0.));
#560 = DIRECTION('',(1.,0.,0.));
#561 = DIRECTION('',(0.,1.,0.));
#562 = ADVANCED_FACE('',(#563,#581),#589,.F.);
#563 = FACE_BOUND('',#564,.F.);
#564 = EDGE_LOOP('',(#565,#566,#574,#580));
#565 = ORIENTED_EDGE('',*,*,#152,.F.);
#566 = ORIENTED_EDGE('',*,*,#567,.T.);
#567 = EDGE_CURVE('',#145,#568,#570,.T.);
#568 = VERTEX_POINT('',#569);
#569 = CARTESIAN_POINT('',(0.8,4.5,-44.));
#570 = LINE('',#571,#572);
#571 = CARTESIAN_POINT('',(0.8,4.5,0.));
#572 = VECTOR('',#573,1.);
#573 = DIRECTION('',(-0.,-0.,-1.));
#574 = ORIENTED_EDGE('',*,*,#575,.T.);
#575 = EDGE_CURVE('',#568,#544,#576,.T.);
#576 = LINE('',#577,#578);
#577 = CARTESIAN_POINT('',(0.605081393083,4.5,-44.));
#578 = VECTOR('',#579,1.);
#579 = DIRECTION('',(1.,0.,0.));
#580 = ORIENTED_EDGE('',*,*,#543,.F.);
#581 = FACE_BOUND('',#582,.F.);
#582 = EDGE_LOOP('',(#583,#584,#585,#586,#587,#588));
#583 = ORIENTED_EDGE('',*,*,#366,.F.);
#584 = ORIENTED_EDGE('',*,*,#246,.T.);
#585 = ORIENTED_EDGE('',*,*,#277,.F.);
#586 = ORIENTED_EDGE('',*,*,#301,.F.);
#587 = ORIENTED_EDGE('',*,*,#318,.T.);
#588 = ORIENTED_EDGE('',*,*,#349,.F.);
#589 = PLANE('',#590);
#590 = AXIS2_PLACEMENT_3D('',#591,#592,#593);
#591 = CARTESIAN_POINT('',(0.8,4.5,0.));
#592 = DIRECTION('',(0.,-1.,0.));
#593 = DIRECTION('',(1.,0.,0.));
#594 = ADVANCED_FACE('',(#595),#606,.F.);
#595 = FACE_BOUND('',#596,.F.);
#596 = EDGE_LOOP('',(#597,#598,#599,#605));
#597 = ORIENTED_EDGE('',*,*,#144,.F.);
#598 = ORIENTED_EDGE('',*,*,#478,.T.);
#599 = ORIENTED_EDGE('',*,*,#600,.T.);
#600 = EDGE_CURVE('',#471,#568,#601,.T.);
#601 = LINE('',#602,#603);
#602 = CARTESIAN_POINT('',(0.8,2.955081393083,-44.));
#603 = VECTOR('',#604,1.);
#604 = DIRECTION('',(-0.,-1.,-0.));
#605 = ORIENTED_EDGE('',*,*,#567,.F.);
#606 = PLANE('',#607);
#607 = AXIS2_PLACEMENT_3D('',#608,#609,#610);
#608 = CARTESIAN_POINT('',(0.8,5.5,0.));
#609 = DIRECTION('',(-1.,0.,0.));
#610 = DIRECTION('',(0.,-1.,0.));
#611 = ADVANCED_FACE('',(#612),#628,.F.);
#612 = FACE_BOUND('',#613,.F.);
#613 = EDGE_LOOP('',(#614,#615,#621,#622));
#614 = ORIENTED_EDGE('',*,*,#496,.T.);
#615 = ORIENTED_EDGE('',*,*,#616,.T.);
#616 = EDGE_CURVE('',#487,#390,#617,.T.);
#617 = LINE('',#618,#619);
#618 = CARTESIAN_POINT('',(8.5,4.799594524106E-02,-5.499790576853));
#619 = VECTOR('',#620,1.);
#620 = DIRECTION('',(0.,1.,0.));
#621 = ORIENTED_EDGE('',*,*,#387,.F.);
#622 = ORIENTED_EDGE('',*,*,#623,.F.);
#623 = EDGE_CURVE('',#497,#388,#624,.T.);
#624 = LINE('',#625,#626);
#625 = CARTESIAN_POINT('',(5.,1.745307099675E-02,-1.999923846128));
#626 = VECTOR('',#627,1.);
#627 = DIRECTION('',(0.,1.,0.));
#628 = PLANE('',#629);
#629 = AXIS2_PLACEMENT_3D('',#630,#631,#632);
#630 = CARTESIAN_POINT('',(8.5,4.799594524106E-02,-5.499790576853));
#631 = DIRECTION('',(0.707093318572,-0.,0.707120243544));
#632 = DIRECTION('',(-0.707106781187,-6.170592427165E-03,0.707079856727)
  );
#633 = ADVANCED_FACE('',(#634),#645,.T.);
#634 = FACE_BOUND('',#635,.T.);
#635 = EDGE_LOOP('',(#636,#637,#643,#644));
#636 = ORIENTED_EDGE('',*,*,#504,.T.);
#637 = ORIENTED_EDGE('',*,*,#638,.T.);
#638 = EDGE_CURVE('',#505,#433,#639,.T.);
#639 = LINE('',#640,#641);
#640 = CARTESIAN_POINT('',(1.5,4.799594524106E-02,-5.499790576853));
#641 = VECTOR('',#642,1.);
#642 = DIRECTION('',(0.,1.,0.));
#643 = ORIENTED_EDGE('',*,*,#445,.F.);
#644 = ORIENTED_EDGE('',*,*,#623,.F.);
#645 = PLANE('',#646);
#646 = AXIS2_PLACEMENT_3D('',#647,#648,#649);
#647 = CARTESIAN_POINT('',(1.5,4.799594524106E-02,-5.499790576853));
#648 = DIRECTION('',(0.707093318572,0.,-0.707120243544));
#649 = DIRECTION('',(0.707106781187,-6.170592427165E-03,0.707079856727)
  );
#650 = ADVANCED_FACE('',(#651),#662,.F.);
#651 = FACE_BOUND('',#652,.F.);
#652 = EDGE_LOOP('',(#653,#654,#655,#656));
#653 = ORIENTED_EDGE('',*,*,#512,.T.);
#654 = ORIENTED_EDGE('',*,*,#638,.T.);
#655 = ORIENTED_EDGE('',*,*,#432,.T.);
#656 = ORIENTED_EDGE('',*,*,#657,.F.);
#657 = EDGE_CURVE('',#513,#423,#658,.T.);
#658 = LINE('',#659,#660);
#659 = CARTESIAN_POINT('',(1.5,0.344713769928,-39.50028557701));
#660 = VECTOR('',#661,1.);
#661 = DIRECTION('',(0.,1.,0.));
#662 = PLANE('',#663);
#663 = AXIS2_PLACEMENT_3D('',#664,#665,#666);
#664 = CARTESIAN_POINT('',(1.5,4.799594524106E-02,-5.499790576853));
#665 = DIRECTION('',(-1.,0.,0.));
#666 = DIRECTION('',(0.,8.726535498374E-03,-0.999961923064));
#667 = ADVANCED_FACE('',(#668),#679,.F.);
#668 = FACE_BOUND('',#669,.F.);
#669 = EDGE_LOOP('',(#670,#671,#672,#673));
#670 = ORIENTED_EDGE('',*,*,#520,.T.);
#671 = ORIENTED_EDGE('',*,*,#657,.T.);
#672 = ORIENTED_EDGE('',*,*,#422,.T.);
#673 = ORIENTED_EDGE('',*,*,#674,.F.);
#674 = EDGE_CURVE('',#521,#413,#675,.T.);
#675 = LINE('',#676,#677);
#676 = CARTESIAN_POINT('',(5.,0.375256644172,-43.00015230774));
#677 = VECTOR('',#678,1.);
#678 = DIRECTION('',(0.,1.,0.));
#679 = PLANE('',#680);
#680 = AXIS2_PLACEMENT_3D('',#681,#682,#683);
#681 = CARTESIAN_POINT('',(1.5,0.344713769928,-39.50028557701));
#682 = DIRECTION('',(-0.707093318572,0.,-0.707120243544));
#683 = DIRECTION('',(0.707106781187,6.170592427165E-03,-0.707079856727)
  );
#684 = ADVANCED_FACE('',(#685),#696,.T.);
#685 = FACE_BOUND('',#686,.T.);
#686 = EDGE_LOOP('',(#687,#688,#694,#695));
#687 = ORIENTED_EDGE('',*,*,#528,.T.);
#688 = ORIENTED_EDGE('',*,*,#689,.T.);
#689 = EDGE_CURVE('',#489,#400,#690,.T.);
#690 = LINE('',#691,#692);
#691 = CARTESIAN_POINT('',(8.5,0.344713769928,-39.50028557701));
#692 = VECTOR('',#693,1.);
#693 = DIRECTION('',(0.,1.,0.));
#694 = ORIENTED_EDGE('',*,*,#412,.F.);
#695 = ORIENTED_EDGE('',*,*,#674,.F.);
#696 = PLANE('',#697);
#697 = AXIS2_PLACEMENT_3D('',#698,#699,#700);
#698 = CARTESIAN_POINT('',(8.5,0.344713769928,-39.50028557701));
#699 = DIRECTION('',(-0.707093318572,0.,0.707120243544));
#700 = DIRECTION('',(-0.707106781187,6.170592427165E-03,-0.707079856727)
  );
#701 = ADVANCED_FACE('',(#702),#708,.F.);
#702 = FACE_BOUND('',#703,.F.);
#703 = EDGE_LOOP('',(#704,#705,#706,#707));
#704 = ORIENTED_EDGE('',*,*,#486,.T.);
#705 = ORIENTED_EDGE('',*,*,#689,.T.);
#706 = ORIENTED_EDGE('',*,*,#399,.F.);
#707 = ORIENTED_EDGE('',*,*,#616,.F.);
#708 = PLANE('',#709);
#709 = AXIS2_PLACEMENT_3D('',#710,#711,#712);
#710 = CARTESIAN_POINT('',(8.5,0.344713769928,-39.50028557701));
#711 = DIRECTION('',(1.,0.,-0.));
#712 = DIRECTION('',(0.,-8.726535498374E-03,0.999961923064));
#713 = ADVANCED_FACE('',(#714),#720,.F.);
#714 = FACE_BOUND('',#715,.F.);
#715 = EDGE_LOOP('',(#716,#717,#718,#719));
#716 = ORIENTED_EDGE('',*,*,#600,.F.);
#717 = ORIENTED_EDGE('',*,*,#470,.F.);
#718 = ORIENTED_EDGE('',*,*,#551,.F.);
#719 = ORIENTED_EDGE('',*,*,#575,.F.);
#720 = PLANE('',#721);
#721 = AXIS2_PLACEMENT_3D('',#722,#723,#724);
#722 = CARTESIAN_POINT('',(0.410162786166,0.410162786166,-44.));
#723 = DIRECTION('',(0.,0.,-1.));
#724 = DIRECTION('',(0.707106781187,0.707106781187,0.));
#725 = ( GEOMETRIC_REPRESENTATION_CONTEXT(3) 
GLOBAL_UNCERTAINTY_ASSIGNED_CONTEXT((#729)) GLOBAL_UNIT_ASSIGNED_CONTEXT
((#726,#727,#728)) REPRESENTATION_CONTEXT('Context #1',
  '3D Context with UNIT and UNCERTAINTY') );
#726 = ( LENGTH_UNIT() NAMED_UNIT(*) SI_UNIT(.MILLI.,.METRE.) );
#727 = ( NAMED_UNIT(*) PLANE_ANGLE_UNIT() SI_UNIT($,.RADIAN.) );
#728 = ( NAMED_UNIT(*) SI_UNIT($,.STERADIAN.) SOLID_ANGLE_UNIT() );
#729 = UNCERTAINTY_MEASURE_WITH_UNIT(LENGTH_MEASURE(1.E-05),#726,
  'distance_accuracy_value','confusion accuracy');
#730 = PRODUCT_RELATED_PRODUCT_CATEGORY('part',$,(#7));
#731 = MECHANICAL_DESIGN_GEOMETRIC_PRESENTATION_REPRESENTATION('',(#732)
  ,#725);
#732 = STYLED_ITEM('color',(#733),#15);
#733 = PRESENTATION_STYLE_ASSIGNMENT((#734,#740));
#734 = SURFACE_STYLE_USAGE(.BOTH.,#735);
#735 = SURFACE_SIDE_STYLE('',(#736));
#736 = SURFACE_STYLE_FILL_AREA(#737);
#737 = FILL_AREA_STYLE('',(#738));
#738 = FILL_AREA_STYLE_COLOUR('',#739);
#739 = COLOUR_RGB('',0.447059003357,0.474510015008,0.501960993452);
#740 = CURVE_STYLE('',#741,POSITIVE_LENGTH_MEASURE(0.1),#742);
#741 = DRAUGHTING_PRE_DEFINED_CURVE_FONT('continuous');
#742 = COLOUR_RGB('',9.803921802644E-02,9.803921802644E-02,
  9.803921802644E-02);
ENDSEC;
END-ISO-10303-21;
