%TF.GenerationSoftware,KiCad,Pcbnew,9.0.0*%
%TF.CreationDate,2025-07-23T12:06:56-04:00*%
%TF.ProjectId,phoenix-main-board,70686f65-6e69-4782-9d6d-61696e2d626f,rev?*%
%TF.SameCoordinates,Original*%
%TF.FileFunction,Copper,L4,Bot*%
%TF.FilePolarity,Positive*%
%FSLAX46Y46*%
G04 Gerber Fmt 4.6, Leading zero omitted, Abs format (unit mm)*
G04 Created by KiCad (PCBNEW 9.0.0) date 2025-07-23 12:06:56*
%MOMM*%
%LPD*%
G01*
G04 APERTURE LIST*
G04 Aperture macros list*
%AMRoundRect*
0 Rectangle with rounded corners*
0 $1 Rounding radius*
0 $2 $3 $4 $5 $6 $7 $8 $9 X,Y pos of 4 corners*
0 Add a 4 corners polygon primitive as box body*
4,1,4,$2,$3,$4,$5,$6,$7,$8,$9,$2,$3,0*
0 Add four circle primitives for the rounded corners*
1,1,$1+$1,$2,$3*
1,1,$1+$1,$4,$5*
1,1,$1+$1,$6,$7*
1,1,$1+$1,$8,$9*
0 Add four rect primitives between the rounded corners*
20,1,$1+$1,$2,$3,$4,$5,0*
20,1,$1+$1,$4,$5,$6,$7,0*
20,1,$1+$1,$6,$7,$8,$9,0*
20,1,$1+$1,$8,$9,$2,$3,0*%
G04 Aperture macros list end*
%TA.AperFunction,ComponentPad*%
%ADD10C,2.000000*%
%TD*%
%TA.AperFunction,ComponentPad*%
%ADD11R,1.800000X1.800000*%
%TD*%
%TA.AperFunction,ComponentPad*%
%ADD12C,1.800000*%
%TD*%
%TA.AperFunction,ComponentPad*%
%ADD13RoundRect,0.250000X0.550000X0.550000X-0.550000X0.550000X-0.550000X-0.550000X0.550000X-0.550000X0*%
%TD*%
%TA.AperFunction,ComponentPad*%
%ADD14C,1.600000*%
%TD*%
%TA.AperFunction,ComponentPad*%
%ADD15C,3.600000*%
%TD*%
%TA.AperFunction,ConnectorPad*%
%ADD16C,5.600000*%
%TD*%
%TA.AperFunction,ComponentPad*%
%ADD17C,1.778000*%
%TD*%
%TA.AperFunction,ViaPad*%
%ADD18C,0.600000*%
%TD*%
%TA.AperFunction,Conductor*%
%ADD19C,0.400000*%
%TD*%
%TA.AperFunction,Conductor*%
%ADD20C,0.200000*%
%TD*%
%TA.AperFunction,Conductor*%
%ADD21C,0.600000*%
%TD*%
G04 APERTURE END LIST*
D10*
%TO.P,TP2,1,1*%
%TO.N,/CH1*%
X112500000Y-65400000D03*
%TD*%
%TO.P,TP31,1,1*%
%TO.N,/CSOURCE*%
X79029149Y-48693730D03*
%TD*%
%TO.P,TP26,1,1*%
%TO.N,/IN2*%
X63416634Y-46179931D03*
%TD*%
%TO.P,TP10,1,1*%
%TO.N,GND*%
X65500000Y-34600000D03*
%TD*%
D11*
%TO.P,D1,1,K*%
%TO.N,/NO0*%
X83500000Y-35782097D03*
D12*
%TO.P,D1,2,A*%
%TO.N,/CSOURCE*%
X83500000Y-33242097D03*
%TD*%
D10*
%TO.P,TP32,1,1*%
%TO.N,/SCL*%
X63800000Y-28900000D03*
%TD*%
D11*
%TO.P,D2,1,K*%
%TO.N,/NO1*%
X83500000Y-48261990D03*
D12*
%TO.P,D2,2,A*%
%TO.N,/CSOURCE*%
X83500000Y-45721990D03*
%TD*%
D13*
%TO.P,TH1,1*%
%TO.N,/CH2*%
X103000000Y-67250000D03*
D14*
%TO.P,TH1,2*%
%TO.N,GND*%
X99400000Y-67250000D03*
%TD*%
D15*
%TO.P,REF\u002A\u002A,1*%
%TO.N,N/C*%
X33500000Y-23500000D03*
D16*
X33500000Y-23500000D03*
%TD*%
D10*
%TO.P,TP23,1,1*%
%TO.N,+3.3VA*%
X128500000Y-67500000D03*
%TD*%
%TO.P,TP27,1,1*%
%TO.N,GND*%
X128500000Y-71000000D03*
%TD*%
D15*
%TO.P,REF\u002A\u002A,1*%
%TO.N,N/C*%
X134500000Y-74500000D03*
D16*
X134500000Y-74500000D03*
%TD*%
D10*
%TO.P,TP18,1,1*%
%TO.N,/NO0*%
X82400000Y-40300000D03*
%TD*%
%TO.P,TP36,1,1*%
%TO.N,Net-(U3-VBUS)*%
X36100000Y-47200000D03*
%TD*%
%TO.P,TP16,1,1*%
%TO.N,-0.23V*%
X85700000Y-27500000D03*
%TD*%
%TO.P,TP15,1,1*%
%TO.N,/MISO*%
X88953039Y-57249675D03*
%TD*%
%TO.P,TP13,1,1*%
%TO.N,/SCK*%
X88953039Y-53749675D03*
%TD*%
D15*
%TO.P,REF\u002A\u002A,1*%
%TO.N,N/C*%
X134500000Y-23500000D03*
D16*
X134500000Y-23500000D03*
%TD*%
D10*
%TO.P,TP9,1,1*%
%TO.N,+3.3V*%
X63100000Y-55300000D03*
%TD*%
%TO.P,TP5,1,1*%
%TO.N,/CH2*%
X108600000Y-65300000D03*
%TD*%
D15*
%TO.P,REF\u002A\u002A,1*%
%TO.N,N/C*%
X33500000Y-74500000D03*
D16*
X33500000Y-74500000D03*
%TD*%
D10*
%TO.P,TP19,1,1*%
%TO.N,/NO1*%
X79700000Y-44300000D03*
%TD*%
%TO.P,TP14,1,1*%
%TO.N,/MOSI*%
X86000000Y-55500000D03*
%TD*%
%TO.P,TP12,1,1*%
%TO.N,/~{MCP_CS}*%
X86000000Y-52000000D03*
%TD*%
%TO.P,TP37,1,1*%
%TO.N,/~{IRQ}*%
X85980192Y-58914972D03*
%TD*%
%TO.P,TP3,1,1*%
%TO.N,/CH4*%
X134614892Y-45000000D03*
%TD*%
%TO.P,TP33,1,1*%
%TO.N,/SDA*%
X63900000Y-25200000D03*
%TD*%
%TO.P,TP34,1,1*%
%TO.N,/Thermistor_On*%
X94000000Y-70100000D03*
%TD*%
%TO.P,TP20,1,1*%
%TO.N,/NO2*%
X80500000Y-37500000D03*
%TD*%
%TO.P,TP1,1,1*%
%TO.N,/CH0*%
X115900000Y-66900000D03*
%TD*%
%TO.P,TP25,1,1*%
%TO.N,/IN1*%
X63500000Y-49500000D03*
%TD*%
%TO.P,TP17,1,1*%
%TO.N,+5V*%
X69750000Y-48250000D03*
%TD*%
D11*
%TO.P,PD1,1,K*%
%TO.N,Net-(PD1-K)*%
X118195061Y-32742046D03*
D12*
%TO.P,PD1,2,A*%
%TO.N,-0.23V*%
X118195061Y-35282046D03*
%TD*%
D10*
%TO.P,TP4,1,1*%
%TO.N,/CH5*%
X127700000Y-51000000D03*
%TD*%
%TO.P,TP11,1,1*%
%TO.N,/EnablePower*%
X67000000Y-50400000D03*
%TD*%
D11*
%TO.P,PD2,1,K*%
%TO.N,Net-(PD2-K)*%
X118195061Y-45221939D03*
D12*
%TO.P,PD2,2,A*%
%TO.N,-0.23V*%
X118195061Y-47761939D03*
%TD*%
D10*
%TO.P,TP24,1,1*%
%TO.N,Net-(U3-VBAT)*%
X35900000Y-42500000D03*
%TD*%
D17*
%TO.P,U3,1,RESET*%
%TO.N,unconnected-(U3-RESET-Pad1)*%
X59500000Y-31480000D03*
%TO.P,U3,2,3.3V*%
%TO.N,+3.3V*%
X59500000Y-34020000D03*
%TO.P,U3,3,21_(AREF)*%
%TO.N,unconnected-(U3-21_(AREF)-Pad3)*%
X59500000Y-36560000D03*
%TO.P,U3,4,GND*%
%TO.N,GND*%
X59500000Y-39100000D03*
%TO.P,U3,5,14_(A0)*%
%TO.N,unconnected-(U3-14_(A0)-Pad5)*%
X59500000Y-41640000D03*
%TO.P,U3,6,15_(A1)*%
%TO.N,unconnected-(U3-15_(A1)-Pad6)*%
X59500000Y-44180000D03*
%TO.P,U3,7,16_(A2)*%
%TO.N,unconnected-(U3-16_(A2)-Pad7)*%
X59500000Y-46720000D03*
%TO.P,U3,8,17_(A3)*%
%TO.N,/IN1*%
X59500000Y-49260000D03*
%TO.P,U3,9,18_(A4)*%
%TO.N,/IN2*%
X59500000Y-51800000D03*
%TO.P,U3,10,19_(A5)*%
%TO.N,unconnected-(U3-19_(A5)-Pad10)*%
X59500000Y-54340000D03*
%TO.P,U3,11,26_(SCK)*%
%TO.N,/SCK*%
X59500000Y-56880000D03*
%TO.P,U3,12,25_(MOSI)*%
%TO.N,/MOSI*%
X59500000Y-59420000D03*
%TO.P,U3,13,24_(MISO)*%
%TO.N,/MISO*%
X59500000Y-61960000D03*
%TO.P,U3,14,1_(RX)*%
%TO.N,unconnected-(U3-1_(RX)-Pad14)*%
X59500000Y-64500000D03*
%TO.P,U3,15,0_(TX)*%
%TO.N,unconnected-(U3-0_(TX)-Pad15)*%
X59500000Y-67040000D03*
%TO.P,U3,16,2_(D2)*%
%TO.N,unconnected-(U3-2_(D2)-Pad16)*%
X59500000Y-69580000D03*
%TO.P,U3,17,VBAT*%
%TO.N,Net-(U3-VBAT)*%
X39180000Y-41640000D03*
%TO.P,U3,18,EN*%
%TO.N,unconnected-(U3-EN-Pad18)*%
X39180000Y-44180000D03*
%TO.P,U3,19,VBUS*%
%TO.N,Net-(U3-VBUS)*%
X39180000Y-46720000D03*
%TO.P,U3,20,13_(D13)*%
%TO.N,/~{MCP_CS}*%
X39180000Y-49260000D03*
%TO.P,U3,21,12_(D12)*%
%TO.N,/EnablePower*%
X39180000Y-51800000D03*
%TO.P,U3,22,11_(D11)*%
%TO.N,/Thermistor_On*%
X39180000Y-54340000D03*
%TO.P,U3,23,10_(D10)*%
%TO.N,unconnected-(U3-10_(D10)-Pad23)*%
X39180000Y-56880000D03*
%TO.P,U3,24,9_(D9)*%
%TO.N,/~{IRQ}*%
X39180000Y-59420000D03*
%TO.P,U3,25,6_(D6)*%
%TO.N,unconnected-(U3-6_(D6)-Pad25)*%
X39180000Y-61960000D03*
%TO.P,U3,26,5_(D5)*%
%TO.N,unconnected-(U3-5_(D5)-Pad26)*%
X39180000Y-64500000D03*
%TO.P,U3,27,23_(SCL)*%
%TO.N,/SCL*%
X39180000Y-67040000D03*
%TO.P,U3,28,22_(SDA)*%
%TO.N,/SDA*%
X39180000Y-69580000D03*
%TD*%
D18*
%TO.N,GND*%
X120400000Y-61200000D03*
X118300000Y-50800000D03*
X94700000Y-35400000D03*
X74200000Y-47500000D03*
X74100000Y-37100000D03*
X114500000Y-69800000D03*
X115400000Y-30800000D03*
X117500000Y-74100000D03*
X131550000Y-51750000D03*
X136400000Y-52300000D03*
X96600000Y-68500000D03*
X132000000Y-50800000D03*
X130700000Y-61200000D03*
X136400000Y-50400000D03*
X132400000Y-60600000D03*
X93100000Y-31400000D03*
X131900000Y-43200000D03*
X100200000Y-63900000D03*
X133600000Y-34700000D03*
X71800000Y-29100000D03*
X126350000Y-73150000D03*
X132200000Y-34200000D03*
X131600000Y-39800000D03*
X136300000Y-37400000D03*
X85700000Y-31000000D03*
X75300000Y-35900000D03*
X107600000Y-69600000D03*
X130100000Y-71000000D03*
X109600000Y-62300000D03*
X70900000Y-62600000D03*
X120800000Y-50800000D03*
X126900000Y-48400000D03*
X135400000Y-36500000D03*
X136400000Y-38800000D03*
X132400000Y-56400000D03*
X86300000Y-50500000D03*
X77100000Y-34100000D03*
X122300000Y-59200000D03*
X121100000Y-37300000D03*
X94600000Y-32900000D03*
X107000000Y-62300000D03*
X136400000Y-41000000D03*
X110500000Y-44400000D03*
X124200000Y-48500000D03*
X108800000Y-74100000D03*
X71200000Y-44500000D03*
X81500000Y-31000000D03*
X118500000Y-40604699D03*
X130000000Y-36300000D03*
X111800000Y-62300000D03*
X130750000Y-52550000D03*
X111100000Y-34900000D03*
X120300000Y-74100000D03*
X132400000Y-58400000D03*
X77248514Y-41129148D03*
X132400000Y-66000000D03*
X110500000Y-36000000D03*
X116500000Y-50600000D03*
X104100000Y-63900000D03*
X132000000Y-49500000D03*
X83200000Y-50500000D03*
X94700000Y-47700000D03*
X94500000Y-49600000D03*
X123750000Y-52450000D03*
X119300000Y-30700000D03*
X127900000Y-36300000D03*
X113850000Y-62450000D03*
X132000000Y-46800000D03*
X124400000Y-53800000D03*
X73050000Y-46350000D03*
X125800000Y-58500000D03*
X133550000Y-55150000D03*
X114800000Y-48900000D03*
X110500000Y-42100000D03*
X74300000Y-26300000D03*
X80500000Y-50500000D03*
X127300000Y-36300000D03*
X125000000Y-70700000D03*
X71100000Y-63900000D03*
X117900000Y-63200000D03*
X130400000Y-57400000D03*
X121700000Y-30700000D03*
X126300000Y-40604699D03*
X132000000Y-45500000D03*
X123200000Y-40604699D03*
X116800000Y-30700000D03*
X123300000Y-43200000D03*
X132400000Y-62700000D03*
X127800000Y-40604699D03*
X77100000Y-28300000D03*
X124300000Y-74100000D03*
X69700000Y-30100000D03*
X102600000Y-74100000D03*
X110500000Y-40200000D03*
X110500000Y-37600000D03*
X99900000Y-74100000D03*
X79550000Y-31650000D03*
X115000000Y-74100000D03*
X124400000Y-55600000D03*
X134850000Y-53850000D03*
X124150000Y-56750000D03*
X113200000Y-47300000D03*
X124900000Y-40604699D03*
X123299000Y-59200000D03*
X75900000Y-49200000D03*
X123100000Y-49600000D03*
X92900000Y-50500000D03*
X115600000Y-63200000D03*
X123050000Y-31450000D03*
X105350000Y-62950000D03*
X130100000Y-41400000D03*
X112100000Y-74100000D03*
X122600000Y-60400000D03*
X96600000Y-67000000D03*
X94700000Y-41300000D03*
X132400000Y-67100000D03*
X131400000Y-59800000D03*
X72000000Y-58600000D03*
X94700000Y-44500000D03*
X136400000Y-43400000D03*
X136400000Y-45500000D03*
X114500000Y-31700000D03*
X120000000Y-40604699D03*
X120750000Y-62350000D03*
X130000000Y-53300000D03*
X120400000Y-37300000D03*
X134500000Y-35600000D03*
X78900000Y-39700000D03*
X102100000Y-63900000D03*
X80500000Y-24200000D03*
X90200000Y-31000000D03*
X131100000Y-62800000D03*
X121400000Y-40604699D03*
X97300000Y-74100000D03*
X120000000Y-63100000D03*
X111600000Y-45700000D03*
X118200000Y-71200000D03*
X129800000Y-34200000D03*
X81400000Y-28700000D03*
X90200000Y-50500000D03*
X121750000Y-61350000D03*
X98400000Y-63900000D03*
X124650000Y-33050000D03*
X131000000Y-42300000D03*
X94700000Y-39000000D03*
X72400000Y-37100000D03*
X122600000Y-51300000D03*
X105500000Y-74100000D03*
X117100000Y-40604699D03*
X132200000Y-68900000D03*
X126700000Y-34200000D03*
X132000000Y-44000000D03*
X96600000Y-65200000D03*
X123299000Y-57700000D03*
X132400000Y-64300000D03*
X116300000Y-40500000D03*
X132000000Y-48200000D03*
X77700000Y-28700000D03*
X131050000Y-70050000D03*
X136400000Y-48300000D03*
X125800000Y-59200000D03*
%TO.N,+5V*%
X75500000Y-42600000D03*
X80200000Y-68000000D03*
X71300000Y-60800000D03*
%TO.N,+3.3VA*%
X119900000Y-43100000D03*
X127200000Y-45300000D03*
%TO.N,/~{IRQ}*%
X47100000Y-59200000D03*
%TO.N,/~{MCP_CS}*%
X74400000Y-51900000D03*
X63100000Y-53300000D03*
%TO.N,/EnablePower*%
X62400000Y-38300000D03*
X64100000Y-37200000D03*
X40900000Y-49700000D03*
%TO.N,/IN1*%
X75000000Y-41300000D03*
%TO.N,/IN2*%
X75224265Y-40224265D03*
%TO.N,/SCL*%
X128499997Y-45000000D03*
%TO.N,/SDA*%
X42900000Y-32100000D03*
X129300000Y-45000000D03*
%TD*%
D19*
%TO.N,+3.3V*%
X61300000Y-53500000D02*
X63100000Y-55300000D01*
X61300000Y-35820000D02*
X61300000Y-53500000D01*
X59500000Y-34020000D02*
X61300000Y-35820000D01*
D20*
%TO.N,+5V*%
X75100000Y-42900000D02*
X69750000Y-48250000D01*
X75200000Y-42900000D02*
X75100000Y-42900000D01*
D21*
X78500000Y-68000000D02*
X80200000Y-68000000D01*
X71300000Y-60800000D02*
X78500000Y-68000000D01*
D20*
X75500000Y-42600000D02*
X75200000Y-42900000D01*
D19*
%TO.N,+3.3VA*%
X125400000Y-47100000D02*
X127200000Y-45300000D01*
D20*
X119900000Y-43100000D02*
X125400000Y-48600000D01*
D19*
X125100000Y-64100000D02*
X125100000Y-49800000D01*
X125100000Y-49800000D02*
X125400000Y-49500000D01*
X125400000Y-47300000D02*
X125400000Y-47100000D01*
X128500000Y-67500000D02*
X125100000Y-64100000D01*
D20*
X125400000Y-48600000D02*
X125400000Y-49500000D01*
D19*
X125400000Y-49500000D02*
X125400000Y-47300000D01*
D20*
%TO.N,/CSOURCE*%
X79029149Y-48693730D02*
X82000889Y-45721990D01*
X82000889Y-45721990D02*
X83500000Y-45721990D01*
%TO.N,/~{IRQ}*%
X66074200Y-57600000D02*
X60524200Y-63150000D01*
X60524200Y-63150000D02*
X51050000Y-63150000D01*
X85980192Y-58914972D02*
X84665220Y-57600000D01*
X84665220Y-57600000D02*
X66074200Y-57600000D01*
X51050000Y-63150000D02*
X47100000Y-59200000D01*
%TO.N,/MISO*%
X63286100Y-59821000D02*
X63521000Y-59586100D01*
X85200650Y-57000000D02*
X85450325Y-57249675D01*
X63521000Y-59586100D02*
X66107100Y-57000000D01*
X59500000Y-61960000D02*
X61639000Y-59821000D01*
X85450325Y-57249675D02*
X88953039Y-57249675D01*
X66107100Y-57000000D02*
X85200650Y-57000000D01*
X62953900Y-59821000D02*
X63286100Y-59821000D01*
X61639000Y-59821000D02*
X62953900Y-59821000D01*
%TO.N,/MOSI*%
X63120000Y-59420000D02*
X59500000Y-59420000D01*
X86000000Y-55500000D02*
X85700000Y-55200000D01*
X85700000Y-55200000D02*
X67340000Y-55200000D01*
X67340000Y-55200000D02*
X63120000Y-59420000D01*
%TO.N,/SCK*%
X64401000Y-55259000D02*
X65860000Y-53800000D01*
X62780000Y-56880000D02*
X63059000Y-56601000D01*
X63059000Y-56601000D02*
X63638892Y-56601000D01*
X63638892Y-56601000D02*
X64401000Y-55838892D01*
X64401000Y-55838892D02*
X64401000Y-55259000D01*
X83950325Y-53749675D02*
X88953039Y-53749675D01*
X83900000Y-53800000D02*
X83950325Y-53749675D01*
X65860000Y-53800000D02*
X83900000Y-53800000D01*
X59500000Y-56880000D02*
X62780000Y-56880000D01*
%TO.N,/~{MCP_CS}*%
X74400000Y-51900000D02*
X64500000Y-51900000D01*
X64500000Y-51900000D02*
X63100000Y-53300000D01*
%TO.N,/EnablePower*%
X40900000Y-50080000D02*
X39180000Y-51800000D01*
X63500000Y-37200000D02*
X62400000Y-38300000D01*
X64100000Y-37200000D02*
X63500000Y-37200000D01*
X40900000Y-49700000D02*
X40900000Y-50080000D01*
%TO.N,Net-(U3-VBAT)*%
X35900000Y-42500000D02*
X38320000Y-42500000D01*
X38320000Y-42500000D02*
X39180000Y-41640000D01*
%TO.N,/IN1*%
X75000000Y-41300000D02*
X73100000Y-41300000D01*
X73100000Y-41300000D02*
X64900000Y-49500000D01*
X64900000Y-49500000D02*
X63500000Y-49500000D01*
%TO.N,/IN2*%
X72675735Y-40224265D02*
X66720069Y-46179931D01*
X75224265Y-40224265D02*
X72675735Y-40224265D01*
X66720069Y-46179931D02*
X63416634Y-46179931D01*
%TO.N,/SCL*%
X67000000Y-25700000D02*
X63800000Y-28900000D01*
X39180000Y-67040000D02*
X41600000Y-64620000D01*
X128600000Y-35200000D02*
X119600000Y-26200000D01*
X88500000Y-26200000D02*
X88000000Y-25700000D01*
X44500000Y-28900000D02*
X63800000Y-28900000D01*
X119600000Y-26200000D02*
X88500000Y-26200000D01*
X128499997Y-45000000D02*
X128600000Y-44899997D01*
X88000000Y-25700000D02*
X67000000Y-25700000D01*
X128600000Y-44899997D02*
X128600000Y-35200000D01*
X41600000Y-64620000D02*
X41600000Y-31800000D01*
X41600000Y-31800000D02*
X44500000Y-28900000D01*
%TO.N,/SDA*%
X39180000Y-69580000D02*
X42900000Y-65860000D01*
X42900000Y-65860000D02*
X42900000Y-32100000D01*
X63900000Y-25200000D02*
X119800000Y-25200000D01*
X119800000Y-25200000D02*
X129400000Y-34800000D01*
X129400000Y-44900000D02*
X129300000Y-45000000D01*
X129400000Y-34800000D02*
X129400000Y-44900000D01*
%TO.N,Net-(U3-VBUS)*%
X38700000Y-47200000D02*
X39180000Y-46720000D01*
X36100000Y-47200000D02*
X38700000Y-47200000D01*
%TD*%
M02*
