%TF.GenerationSoftware,KiCad,Pcbnew,9.0.0*%
%TF.CreationDate,2025-07-23T12:06:56-04:00*%
%TF.ProjectId,phoenix-main-board,70686f65-6e69-4782-9d6d-61696e2d626f,rev?*%
%TF.SameCoordinates,Original*%
%TF.FileFunction,Soldermask,Top*%
%TF.FilePolarity,Negative*%
%FSLAX46Y46*%
G04 Gerber Fmt 4.6, Leading zero omitted, Abs format (unit mm)*
G04 Created by KiCad (PCBNEW 9.0.0) date 2025-07-23 12:06:56*
%MOMM*%
%LPD*%
G01*
G04 APERTURE LIST*
G04 Aperture macros list*
%AMRoundRect*
0 Rectangle with rounded corners*
0 $1 Rounding radius*
0 $2 $3 $4 $5 $6 $7 $8 $9 X,Y pos of 4 corners*
0 Add a 4 corners polygon primitive as box body*
4,1,4,$2,$3,$4,$5,$6,$7,$8,$9,$2,$3,0*
0 Add four circle primitives for the rounded corners*
1,1,$1+$1,$2,$3*
1,1,$1+$1,$4,$5*
1,1,$1+$1,$6,$7*
1,1,$1+$1,$8,$9*
0 Add four rect primitives between the rounded corners*
20,1,$1+$1,$2,$3,$4,$5,0*
20,1,$1+$1,$4,$5,$6,$7,0*
20,1,$1+$1,$6,$7,$8,$9,0*
20,1,$1+$1,$8,$9,$2,$3,0*%
G04 Aperture macros list end*
%ADD10C,2.000000*%
%ADD11RoundRect,0.200000X-0.200000X-0.275000X0.200000X-0.275000X0.200000X0.275000X-0.200000X0.275000X0*%
%ADD12RoundRect,0.225000X-0.250000X0.225000X-0.250000X-0.225000X0.250000X-0.225000X0.250000X0.225000X0*%
%ADD13RoundRect,0.225000X-0.225000X-0.250000X0.225000X-0.250000X0.225000X0.250000X-0.225000X0.250000X0*%
%ADD14RoundRect,0.125000X-0.687500X-0.125000X0.687500X-0.125000X0.687500X0.125000X-0.687500X0.125000X0*%
%ADD15RoundRect,0.100000X-0.100000X0.712500X-0.100000X-0.712500X0.100000X-0.712500X0.100000X0.712500X0*%
%ADD16RoundRect,0.225000X0.225000X0.250000X-0.225000X0.250000X-0.225000X-0.250000X0.225000X-0.250000X0*%
%ADD17RoundRect,0.200000X0.200000X0.275000X-0.200000X0.275000X-0.200000X-0.275000X0.200000X-0.275000X0*%
%ADD18R,1.800000X1.800000*%
%ADD19C,1.800000*%
%ADD20R,0.700000X0.250000*%
%ADD21R,1.660000X2.380000*%
%ADD22RoundRect,0.087500X0.537500X0.087500X-0.537500X0.087500X-0.537500X-0.087500X0.537500X-0.087500X0*%
%ADD23C,1.500000*%
%ADD24RoundRect,0.250000X0.550000X0.550000X-0.550000X0.550000X-0.550000X-0.550000X0.550000X-0.550000X0*%
%ADD25C,1.600000*%
%ADD26C,3.600000*%
%ADD27C,5.600000*%
%ADD28RoundRect,0.100000X0.637500X0.100000X-0.637500X0.100000X-0.637500X-0.100000X0.637500X-0.100000X0*%
%ADD29RoundRect,0.200000X-0.275000X0.200000X-0.275000X-0.200000X0.275000X-0.200000X0.275000X0.200000X0*%
%ADD30RoundRect,0.200000X0.275000X-0.200000X0.275000X0.200000X-0.275000X0.200000X-0.275000X-0.200000X0*%
%ADD31RoundRect,0.218750X0.256250X-0.218750X0.256250X0.218750X-0.256250X0.218750X-0.256250X-0.218750X0*%
%ADD32RoundRect,0.100000X0.100000X-0.350000X0.100000X0.350000X-0.100000X0.350000X-0.100000X-0.350000X0*%
%ADD33RoundRect,0.100000X0.100000X-0.637500X0.100000X0.637500X-0.100000X0.637500X-0.100000X-0.637500X0*%
%ADD34RoundRect,0.150000X-0.512500X-0.150000X0.512500X-0.150000X0.512500X0.150000X-0.512500X0.150000X0*%
%ADD35R,1.500000X1.000000*%
%ADD36C,1.879600*%
G04 APERTURE END LIST*
%TO.C,JP1*%
G36*
X63750000Y-42800000D02*
G01*
X65250000Y-42800000D01*
X65250000Y-41200000D01*
X63750000Y-41200000D01*
X63750000Y-42800000D01*
G37*
%TD*%
D10*
%TO.C,TP2*%
X112500000Y-65400000D03*
%TD*%
D11*
%TO.C,R16*%
X129050000Y-48759949D03*
X130700000Y-48759949D03*
%TD*%
D10*
%TO.C,TP31*%
X79029149Y-48693730D03*
%TD*%
D11*
%TO.C,R6*%
X114850000Y-60259949D03*
X116500000Y-60259949D03*
%TD*%
D12*
%TO.C,C8*%
X119500000Y-60000000D03*
X119500000Y-61550000D03*
%TD*%
D13*
%TO.C,C18*%
X79039477Y-25559039D03*
X80589477Y-25559039D03*
%TD*%
D14*
%TO.C,U2*%
X72975000Y-25450000D03*
X72975000Y-26100000D03*
X72975000Y-26750000D03*
X72975000Y-27400000D03*
X77200000Y-27400000D03*
X77200000Y-26750000D03*
X77200000Y-26100000D03*
X77200000Y-25450000D03*
%TD*%
D15*
%TO.C,U7*%
X122500000Y-38616199D03*
X121850000Y-38616199D03*
X121200000Y-38616199D03*
X120550000Y-38616199D03*
X120550000Y-42841199D03*
X121200000Y-42841199D03*
X121850000Y-42841199D03*
X122500000Y-42841199D03*
%TD*%
D10*
%TO.C,TP26*%
X63416634Y-46179931D03*
%TD*%
%TO.C,TP10*%
X65500000Y-34600000D03*
%TD*%
D16*
%TO.C,C12*%
X134050000Y-39759949D03*
X132500000Y-39759949D03*
%TD*%
D12*
%TO.C,C19*%
X79062940Y-27059949D03*
X79062940Y-28609949D03*
%TD*%
%TO.C,C21*%
X69475000Y-27550000D03*
X69475000Y-29100000D03*
%TD*%
D10*
%TO.C,*%
X135000000Y-58000000D03*
%TD*%
D17*
%TO.C,Rset1*%
X73650000Y-40750000D03*
X72000000Y-40750000D03*
%TD*%
D18*
%TO.C,D1*%
X83500000Y-35782097D03*
D19*
X83500000Y-33242097D03*
%TD*%
D20*
%TO.C,U1*%
X69985000Y-42405000D03*
X69985000Y-41905000D03*
X69985000Y-41405000D03*
X69985000Y-40905000D03*
X67185000Y-40905000D03*
X67185000Y-41405000D03*
X67185000Y-41905000D03*
X67185000Y-42405000D03*
D21*
X68585000Y-41655000D03*
%TD*%
D12*
%TO.C,C7*%
X118000000Y-60000000D03*
X118000000Y-61550000D03*
%TD*%
D17*
%TO.C,R2*%
X118825000Y-42259949D03*
X117175000Y-42259949D03*
%TD*%
D13*
%TO.C,C5*%
X128000000Y-61259949D03*
X129550000Y-61259949D03*
%TD*%
D11*
%TO.C,RFB6*%
X122150000Y-45700000D03*
X123800000Y-45700000D03*
%TD*%
D12*
%TO.C,C22*%
X80724188Y-27100000D03*
X80724188Y-28650000D03*
%TD*%
D10*
%TO.C,TP32*%
X63800000Y-28900000D03*
%TD*%
D12*
%TO.C,C27*%
X124792500Y-68050000D03*
X124792500Y-69600000D03*
%TD*%
D22*
%TO.C,U5*%
X79000000Y-41750000D03*
X79000000Y-41250000D03*
X79000000Y-40750000D03*
X79000000Y-40250000D03*
X76200000Y-40250000D03*
X76200000Y-40750000D03*
X76200000Y-41250000D03*
X76200000Y-41750000D03*
%TD*%
D18*
%TO.C,D2*%
X83500000Y-48261990D03*
D19*
X83500000Y-45721990D03*
%TD*%
D23*
%TO.C,TH1*%
X103000000Y-61250000D03*
X99400000Y-61250000D03*
D24*
X103000000Y-67250000D03*
D25*
X99400000Y-67250000D03*
%TD*%
D26*
%TO.C,REF\u002A\u002A*%
X33500000Y-23500000D03*
D27*
X33500000Y-23500000D03*
%TD*%
D28*
%TO.C,U4*%
X127000000Y-59859949D03*
X127000000Y-59209949D03*
X127000000Y-58559949D03*
X127000000Y-57909949D03*
X127000000Y-57259949D03*
X127000000Y-56609949D03*
X127000000Y-55959949D03*
X127000000Y-55309949D03*
X127000000Y-54659949D03*
X127000000Y-54009949D03*
X121275000Y-54009949D03*
X121275000Y-54659949D03*
X121275000Y-55309949D03*
X121275000Y-55959949D03*
X121275000Y-56609949D03*
X121275000Y-57259949D03*
X121275000Y-57909949D03*
X121275000Y-58559949D03*
X121275000Y-59209949D03*
X121275000Y-59859949D03*
%TD*%
D11*
%TO.C,R7*%
X114850000Y-58759949D03*
X116500000Y-58759949D03*
%TD*%
D29*
%TO.C,TH2*%
X108600000Y-68100000D03*
X108600000Y-69750000D03*
%TD*%
D10*
%TO.C,TP23*%
X128500000Y-67500000D03*
%TD*%
%TO.C,TP27*%
X128500000Y-71000000D03*
%TD*%
D26*
%TO.C,REF\u002A\u002A*%
X134500000Y-74500000D03*
D27*
X134500000Y-74500000D03*
%TD*%
D11*
%TO.C,RFB5*%
X122762500Y-35903699D03*
X124412500Y-35903699D03*
%TD*%
D10*
%TO.C,TP18*%
X82400000Y-40300000D03*
%TD*%
%TO.C,*%
X38500000Y-75000000D03*
%TD*%
D13*
%TO.C,C9*%
X74410794Y-23832445D03*
X75960794Y-23832445D03*
%TD*%
%TO.C,C6*%
X128750000Y-58300000D03*
X130300000Y-58300000D03*
%TD*%
D30*
%TO.C,R23*%
X112000000Y-69750000D03*
X112000000Y-68100000D03*
%TD*%
D11*
%TO.C,R9*%
X114850000Y-55759949D03*
X116500000Y-55759949D03*
%TD*%
D10*
%TO.C,TP36*%
X36100000Y-47200000D03*
%TD*%
D30*
%TO.C,R22*%
X103000000Y-71150000D03*
X103000000Y-69500000D03*
%TD*%
D10*
%TO.C,TP16*%
X85700000Y-27500000D03*
%TD*%
%TO.C,TP15*%
X88953039Y-57249675D03*
%TD*%
%TO.C,TP13*%
X88953039Y-53749675D03*
%TD*%
D26*
%TO.C,REF\u002A\u002A*%
X134500000Y-23500000D03*
D27*
X134500000Y-23500000D03*
%TD*%
D13*
%TO.C,C4*%
X128450000Y-62759949D03*
X130000000Y-62759949D03*
%TD*%
D10*
%TO.C,TP9*%
X63100000Y-55300000D03*
%TD*%
D13*
%TO.C,C24*%
X69950500Y-57725500D03*
X71500500Y-57725500D03*
%TD*%
D10*
%TO.C,TP5*%
X108600000Y-65300000D03*
%TD*%
D26*
%TO.C,REF\u002A\u002A*%
X33500000Y-74500000D03*
D27*
X33500000Y-74500000D03*
%TD*%
D10*
%TO.C,TP19*%
X79700000Y-44300000D03*
%TD*%
D11*
%TO.C,R10*%
X114850000Y-54259949D03*
X116500000Y-54259949D03*
%TD*%
D10*
%TO.C,TP14*%
X86000000Y-55500000D03*
%TD*%
%TO.C,TP12*%
X86000000Y-52000000D03*
%TD*%
%TO.C,TP37*%
X85980192Y-58914972D03*
%TD*%
D11*
%TO.C,R11*%
X114850000Y-52759949D03*
X116500000Y-52759949D03*
%TD*%
D31*
%TO.C,L1*%
X66450500Y-61300500D03*
X66450500Y-59725500D03*
%TD*%
D12*
%TO.C,C26*%
X118592500Y-68084949D03*
X118592500Y-69634949D03*
%TD*%
D17*
%TO.C,R15*%
X134000000Y-38259949D03*
X132350000Y-38259949D03*
%TD*%
D10*
%TO.C,TP3*%
X134614892Y-45000000D03*
%TD*%
D30*
%TO.C,R21*%
X110200000Y-69750000D03*
X110200000Y-68100000D03*
%TD*%
D17*
%TO.C,Rout1*%
X73650000Y-42250000D03*
X72000000Y-42250000D03*
%TD*%
D13*
%TO.C,C23*%
X68100500Y-64075500D03*
X69650500Y-64075500D03*
%TD*%
D10*
%TO.C,REF\u002A\u002A*%
X40000000Y-23500000D03*
%TD*%
D32*
%TO.C,U6*%
X68150500Y-61225500D03*
X68800500Y-61225500D03*
X69450500Y-61225500D03*
X69450500Y-59025500D03*
X68800500Y-59025500D03*
X68150500Y-59025500D03*
%TD*%
D10*
%TO.C,TP33*%
X63900000Y-25200000D03*
%TD*%
%TO.C,TP34*%
X94000000Y-70100000D03*
%TD*%
%TO.C,TP20*%
X80500000Y-37500000D03*
%TD*%
%TO.C,TP1*%
X115900000Y-66900000D03*
%TD*%
%TO.C,TP25*%
X63500000Y-49500000D03*
%TD*%
%TO.C,TP17*%
X69750000Y-48250000D03*
%TD*%
D18*
%TO.C,PD1*%
X118195061Y-32742046D03*
D19*
X118195061Y-35282046D03*
%TD*%
D11*
%TO.C,R5*%
X114850000Y-61759949D03*
X116500000Y-61759949D03*
%TD*%
D10*
%TO.C,TP4*%
X127700000Y-51000000D03*
%TD*%
D17*
%TO.C,R1*%
X118562500Y-38259949D03*
X116912500Y-38259949D03*
%TD*%
D10*
%TO.C,TP11*%
X67000000Y-50400000D03*
%TD*%
D33*
%TO.C,U9*%
X124662500Y-43628699D03*
X125312500Y-43628699D03*
X125962500Y-43628699D03*
X126612500Y-43628699D03*
X127262500Y-43628699D03*
X127912500Y-43628699D03*
X128562500Y-43628699D03*
X129212500Y-43628699D03*
X129212500Y-37903699D03*
X128562500Y-37903699D03*
X127912500Y-37903699D03*
X127262500Y-37903699D03*
X126612500Y-37903699D03*
X125962500Y-37903699D03*
X125312500Y-37903699D03*
X124662500Y-37903699D03*
%TD*%
D17*
%TO.C,R3*%
X78000000Y-38250000D03*
X76350000Y-38250000D03*
%TD*%
D34*
%TO.C,U8*%
X120525000Y-68359949D03*
X120525000Y-69309949D03*
X120525000Y-70259949D03*
X122800000Y-70259949D03*
X122800000Y-68359949D03*
%TD*%
D18*
%TO.C,PD2*%
X118195061Y-45221939D03*
D19*
X118195061Y-47761939D03*
%TD*%
D29*
%TO.C,R24*%
X113510000Y-68100000D03*
X113510000Y-69750000D03*
%TD*%
D13*
%TO.C,C25*%
X68050500Y-62575500D03*
X69600500Y-62575500D03*
%TD*%
D11*
%TO.C,R4*%
X125350000Y-62759949D03*
X127000000Y-62759949D03*
%TD*%
D30*
%TO.C,R12*%
X111000000Y-60409949D03*
X111000000Y-58759949D03*
%TD*%
D10*
%TO.C,TP24*%
X35900000Y-42500000D03*
%TD*%
D11*
%TO.C,R8*%
X114850000Y-57259949D03*
X116500000Y-57259949D03*
%TD*%
D35*
%TO.C,JP1*%
X64500000Y-43300000D03*
X64500000Y-42000000D03*
X64500000Y-40700000D03*
%TD*%
D30*
%TO.C,FB1*%
X82752991Y-26900000D03*
X82752991Y-25250000D03*
%TD*%
D16*
%TO.C,C13*%
X128850000Y-47259949D03*
X127300000Y-47259949D03*
%TD*%
D12*
%TO.C,C20*%
X70975000Y-27550000D03*
X70975000Y-29100000D03*
%TD*%
D36*
%TO.C,U3*%
X59500000Y-31480000D03*
X59500000Y-34020000D03*
X59500000Y-36560000D03*
X59500000Y-39100000D03*
X59500000Y-41640000D03*
X59500000Y-44180000D03*
X59500000Y-46720000D03*
X59500000Y-49260000D03*
X59500000Y-51800000D03*
X59500000Y-54340000D03*
X59500000Y-56880000D03*
X59500000Y-59420000D03*
X59500000Y-61960000D03*
X59500000Y-64500000D03*
X59500000Y-67040000D03*
X59500000Y-69580000D03*
X39180000Y-41640000D03*
X39180000Y-44180000D03*
X39180000Y-46720000D03*
X39180000Y-49260000D03*
X39180000Y-51800000D03*
X39180000Y-54340000D03*
X39180000Y-56880000D03*
X39180000Y-59420000D03*
X39180000Y-61960000D03*
X39180000Y-64500000D03*
X39180000Y-67040000D03*
X39180000Y-69580000D03*
%TD*%
M02*
