%TF.GenerationSoftware,KiCad,Pcbnew,9.0.0*%
%TF.CreationDate,2025-07-23T12:06:56-04:00*%
%TF.ProjectId,phoenix-main-board,70686f65-6e69-4782-9d6d-61696e2d626f,rev?*%
%TF.SameCoordinates,Original*%
%TF.FileFunction,Copper,L1,Top*%
%TF.FilePolarity,Positive*%
%FSLAX46Y46*%
G04 Gerber Fmt 4.6, Leading zero omitted, Abs format (unit mm)*
G04 Created by KiCad (PCBNEW 9.0.0) date 2025-07-23 12:06:56*
%MOMM*%
%LPD*%
G01*
G04 APERTURE LIST*
G04 Aperture macros list*
%AMRoundRect*
0 Rectangle with rounded corners*
0 $1 Rounding radius*
0 $2 $3 $4 $5 $6 $7 $8 $9 X,Y pos of 4 corners*
0 Add a 4 corners polygon primitive as box body*
4,1,4,$2,$3,$4,$5,$6,$7,$8,$9,$2,$3,0*
0 Add four circle primitives for the rounded corners*
1,1,$1+$1,$2,$3*
1,1,$1+$1,$4,$5*
1,1,$1+$1,$6,$7*
1,1,$1+$1,$8,$9*
0 Add four rect primitives between the rounded corners*
20,1,$1+$1,$2,$3,$4,$5,0*
20,1,$1+$1,$4,$5,$6,$7,0*
20,1,$1+$1,$6,$7,$8,$9,0*
20,1,$1+$1,$8,$9,$2,$3,0*%
G04 Aperture macros list end*
%TA.AperFunction,EtchedComponent*%
%ADD10C,0.000000*%
%TD*%
%TA.AperFunction,ComponentPad*%
%ADD11C,2.000000*%
%TD*%
%TA.AperFunction,SMDPad,CuDef*%
%ADD12RoundRect,0.200000X-0.200000X-0.275000X0.200000X-0.275000X0.200000X0.275000X-0.200000X0.275000X0*%
%TD*%
%TA.AperFunction,SMDPad,CuDef*%
%ADD13RoundRect,0.225000X-0.250000X0.225000X-0.250000X-0.225000X0.250000X-0.225000X0.250000X0.225000X0*%
%TD*%
%TA.AperFunction,SMDPad,CuDef*%
%ADD14RoundRect,0.225000X-0.225000X-0.250000X0.225000X-0.250000X0.225000X0.250000X-0.225000X0.250000X0*%
%TD*%
%TA.AperFunction,SMDPad,CuDef*%
%ADD15RoundRect,0.125000X-0.687500X-0.125000X0.687500X-0.125000X0.687500X0.125000X-0.687500X0.125000X0*%
%TD*%
%TA.AperFunction,SMDPad,CuDef*%
%ADD16RoundRect,0.100000X-0.100000X0.712500X-0.100000X-0.712500X0.100000X-0.712500X0.100000X0.712500X0*%
%TD*%
%TA.AperFunction,SMDPad,CuDef*%
%ADD17RoundRect,0.225000X0.225000X0.250000X-0.225000X0.250000X-0.225000X-0.250000X0.225000X-0.250000X0*%
%TD*%
%TA.AperFunction,SMDPad,CuDef*%
%ADD18C,1.000000*%
%TD*%
%TA.AperFunction,SMDPad,CuDef*%
%ADD19RoundRect,0.200000X0.200000X0.275000X-0.200000X0.275000X-0.200000X-0.275000X0.200000X-0.275000X0*%
%TD*%
%TA.AperFunction,ComponentPad*%
%ADD20R,1.800000X1.800000*%
%TD*%
%TA.AperFunction,ComponentPad*%
%ADD21C,1.800000*%
%TD*%
%TA.AperFunction,SMDPad,CuDef*%
%ADD22R,0.700000X0.250000*%
%TD*%
%TA.AperFunction,SMDPad,CuDef*%
%ADD23R,1.660000X2.380000*%
%TD*%
%TA.AperFunction,SMDPad,CuDef*%
%ADD24RoundRect,0.087500X0.537500X0.087500X-0.537500X0.087500X-0.537500X-0.087500X0.537500X-0.087500X0*%
%TD*%
%TA.AperFunction,ComponentPad*%
%ADD25RoundRect,0.250000X0.550000X0.550000X-0.550000X0.550000X-0.550000X-0.550000X0.550000X-0.550000X0*%
%TD*%
%TA.AperFunction,ComponentPad*%
%ADD26C,1.600000*%
%TD*%
%TA.AperFunction,ComponentPad*%
%ADD27C,3.600000*%
%TD*%
%TA.AperFunction,ConnectorPad*%
%ADD28C,5.600000*%
%TD*%
%TA.AperFunction,SMDPad,CuDef*%
%ADD29RoundRect,0.100000X0.637500X0.100000X-0.637500X0.100000X-0.637500X-0.100000X0.637500X-0.100000X0*%
%TD*%
%TA.AperFunction,SMDPad,CuDef*%
%ADD30RoundRect,0.200000X-0.275000X0.200000X-0.275000X-0.200000X0.275000X-0.200000X0.275000X0.200000X0*%
%TD*%
%TA.AperFunction,SMDPad,CuDef*%
%ADD31RoundRect,0.200000X0.275000X-0.200000X0.275000X0.200000X-0.275000X0.200000X-0.275000X-0.200000X0*%
%TD*%
%TA.AperFunction,SMDPad,CuDef*%
%ADD32RoundRect,0.218750X0.256250X-0.218750X0.256250X0.218750X-0.256250X0.218750X-0.256250X-0.218750X0*%
%TD*%
%TA.AperFunction,SMDPad,CuDef*%
%ADD33RoundRect,0.100000X0.100000X-0.350000X0.100000X0.350000X-0.100000X0.350000X-0.100000X-0.350000X0*%
%TD*%
%TA.AperFunction,SMDPad,CuDef*%
%ADD34RoundRect,0.100000X0.100000X-0.637500X0.100000X0.637500X-0.100000X0.637500X-0.100000X-0.637500X0*%
%TD*%
%TA.AperFunction,SMDPad,CuDef*%
%ADD35RoundRect,0.150000X-0.512500X-0.150000X0.512500X-0.150000X0.512500X0.150000X-0.512500X0.150000X0*%
%TD*%
%TA.AperFunction,SMDPad,CuDef*%
%ADD36R,1.500000X1.000000*%
%TD*%
%TA.AperFunction,ComponentPad*%
%ADD37C,1.778000*%
%TD*%
%TA.AperFunction,ViaPad*%
%ADD38C,0.600000*%
%TD*%
%TA.AperFunction,Conductor*%
%ADD39C,0.400000*%
%TD*%
%TA.AperFunction,Conductor*%
%ADD40C,0.200000*%
%TD*%
%TA.AperFunction,Conductor*%
%ADD41C,0.600000*%
%TD*%
%TA.AperFunction,Conductor*%
%ADD42C,0.800000*%
%TD*%
%TA.AperFunction,Conductor*%
%ADD43C,1.000000*%
%TD*%
G04 APERTURE END LIST*
D10*
%TA.AperFunction,EtchedComponent*%
%TO.C,JP1*%
G36*
X64300000Y-42900000D02*
G01*
X63900000Y-42900000D01*
X63900000Y-42400000D01*
X64300000Y-42400000D01*
X64300000Y-42900000D01*
G37*
%TD.AperFunction*%
%TA.AperFunction,EtchedComponent*%
G36*
X65100000Y-42900000D02*
G01*
X64700000Y-42900000D01*
X64700000Y-42400000D01*
X65100000Y-42400000D01*
X65100000Y-42900000D01*
G37*
%TD.AperFunction*%
%TD*%
D11*
%TO.P,TP2,1,1*%
%TO.N,/CH1*%
X112500000Y-65400000D03*
%TD*%
D12*
%TO.P,R16,1*%
%TO.N,/CH5*%
X129050000Y-48759949D03*
%TO.P,R16,2*%
%TO.N,/PD2_SIG*%
X130700000Y-48759949D03*
%TD*%
D11*
%TO.P,TP31,1,1*%
%TO.N,/CSOURCE*%
X79029149Y-48693730D03*
%TD*%
D12*
%TO.P,R6,1*%
%TO.N,/MCLK*%
X114850000Y-60259949D03*
%TO.P,R6,2*%
%TO.N,Net-(U4-MCLK)*%
X116500000Y-60259949D03*
%TD*%
D13*
%TO.P,C8,1*%
%TO.N,Net-(U4-DVDD)*%
X119500000Y-60000000D03*
%TO.P,C8,2*%
%TO.N,GND*%
X119500000Y-61550000D03*
%TD*%
D14*
%TO.P,C18,1*%
%TO.N,Net-(U2-CRES)*%
X79039477Y-25559039D03*
%TO.P,C18,2*%
%TO.N,GND*%
X80589477Y-25559039D03*
%TD*%
D15*
%TO.P,U2,1,CF+*%
%TO.N,Net-(U2-CF+)*%
X72975000Y-25450000D03*
%TO.P,U2,2,GND*%
%TO.N,GND*%
X72975000Y-26100000D03*
%TO.P,U2,3,SD*%
%TO.N,/EnablePower*%
X72975000Y-26750000D03*
%TO.P,U2,4,VDD*%
%TO.N,+3.3V*%
X72975000Y-27400000D03*
%TO.P,U2,5,GND*%
%TO.N,GND*%
X77200000Y-27400000D03*
%TO.P,U2,6,VOUT*%
%TO.N,Net-(U2-VOUT)*%
X77200000Y-26750000D03*
%TO.P,U2,7,CRES*%
%TO.N,Net-(U2-CRES)*%
X77200000Y-26100000D03*
%TO.P,U2,8,CF-*%
%TO.N,Net-(U2-CF-)*%
X77200000Y-25450000D03*
%TD*%
D16*
%TO.P,U7,1,OUT_A*%
%TO.N,/PD1_SIG*%
X122500000Y-38616199D03*
%TO.P,U7,2,-IN_A*%
%TO.N,Net-(PD1-K)*%
X121850000Y-38616199D03*
%TO.P,U7,3,+IN_A*%
%TO.N,GND*%
X121200000Y-38616199D03*
%TO.P,U7,4,V-*%
X120550000Y-38616199D03*
%TO.P,U7,5,V+*%
%TO.N,+3.3VA*%
X120550000Y-42841199D03*
%TO.P,U7,6,OUT_B*%
%TO.N,/PD2_SIG*%
X121200000Y-42841199D03*
%TO.P,U7,7,-IN_B*%
%TO.N,Net-(PD2-K)*%
X121850000Y-42841199D03*
%TO.P,U7,8,+IN_B*%
%TO.N,GND*%
X122500000Y-42841199D03*
%TD*%
D11*
%TO.P,TP26,1,1*%
%TO.N,/IN2*%
X63416634Y-46179931D03*
%TD*%
%TO.P,TP10,1,1*%
%TO.N,GND*%
X65500000Y-34600000D03*
%TD*%
D17*
%TO.P,C12,1*%
%TO.N,/CH4*%
X134050000Y-39759949D03*
%TO.P,C12,2*%
%TO.N,GND*%
X132500000Y-39759949D03*
%TD*%
D13*
%TO.P,C19,1*%
%TO.N,Net-(U2-VOUT)*%
X79062940Y-27059949D03*
%TO.P,C19,2*%
%TO.N,GND*%
X79062940Y-28609949D03*
%TD*%
%TO.P,C21,1*%
%TO.N,+3.3V*%
X69475000Y-27550000D03*
%TO.P,C21,2*%
%TO.N,GND*%
X69475000Y-29100000D03*
%TD*%
D18*
%TO.P,,*%
%TO.N,*%
X135000000Y-58000000D03*
%TD*%
D19*
%TO.P,Rset1,1*%
%TO.N,/CSOURCE*%
X73650000Y-40750000D03*
%TO.P,Rset1,2*%
%TO.N,Net-(Rset1-Pad2)*%
X72000000Y-40750000D03*
%TD*%
D20*
%TO.P,D1,1,K*%
%TO.N,/NO0*%
X83500000Y-35782097D03*
D21*
%TO.P,D1,2,A*%
%TO.N,/CSOURCE*%
X83500000Y-33242097D03*
%TD*%
D22*
%TO.P,U1,1*%
%TO.N,Net-(Rout1-Pad2)*%
X69985000Y-42405000D03*
%TO.P,U1,2*%
X69985000Y-41905000D03*
%TO.P,U1,3,NC*%
%TO.N,unconnected-(U1-NC-Pad3)*%
X69985000Y-41405000D03*
%TO.P,U1,4*%
%TO.N,Net-(Rset1-Pad2)*%
X69985000Y-40905000D03*
%TO.P,U1,5,NC*%
%TO.N,unconnected-(U1-NC-Pad5)*%
X67185000Y-40905000D03*
%TO.P,U1,6,NC*%
%TO.N,unconnected-(U1-NC-Pad6)*%
X67185000Y-41405000D03*
%TO.P,U1,7*%
%TO.N,Net-(JP1-C)*%
X67185000Y-41905000D03*
%TO.P,U1,8*%
X67185000Y-42405000D03*
D23*
%TO.P,U1,9*%
%TO.N,Net-(Rout1-Pad2)*%
X68585000Y-41655000D03*
%TD*%
D13*
%TO.P,C7,1*%
%TO.N,Net-(U4-DVDD)*%
X118000000Y-60000000D03*
%TO.P,C7,2*%
%TO.N,GND*%
X118000000Y-61550000D03*
%TD*%
D19*
%TO.P,R2,1*%
%TO.N,/PD2_SIG*%
X118825000Y-42259949D03*
%TO.P,R2,2*%
%TO.N,-0.23V*%
X117175000Y-42259949D03*
%TD*%
D14*
%TO.P,C5,1*%
%TO.N,Net-(U4-AVDD)*%
X128000000Y-61259949D03*
%TO.P,C5,2*%
%TO.N,GND*%
X129550000Y-61259949D03*
%TD*%
D12*
%TO.P,RFB6,1*%
%TO.N,Net-(PD2-K)*%
X122150000Y-45700000D03*
%TO.P,RFB6,2*%
%TO.N,Net-(U9-W1)*%
X123800000Y-45700000D03*
%TD*%
D13*
%TO.P,C22,1*%
%TO.N,Net-(U2-VOUT)*%
X80724188Y-27100000D03*
%TO.P,C22,2*%
%TO.N,GND*%
X80724188Y-28650000D03*
%TD*%
D11*
%TO.P,TP32,1,1*%
%TO.N,/SCL*%
X63800000Y-28900000D03*
%TD*%
D13*
%TO.P,C27,1*%
%TO.N,+3.3VA*%
X124792500Y-68050000D03*
%TO.P,C27,2*%
%TO.N,GND*%
X124792500Y-69600000D03*
%TD*%
D24*
%TO.P,U5,1,NO0*%
%TO.N,/NO0*%
X79000000Y-41750000D03*
%TO.P,U5,2,NO1*%
%TO.N,/NO1*%
X79000000Y-41250000D03*
%TO.P,U5,3,NO2*%
%TO.N,/NO2*%
X79000000Y-40750000D03*
%TO.P,U5,4,GND*%
%TO.N,GND*%
X79000000Y-40250000D03*
%TO.P,U5,5,IN2*%
%TO.N,/IN2*%
X76200000Y-40250000D03*
%TO.P,U5,6,IN1*%
%TO.N,/IN1*%
X76200000Y-40750000D03*
%TO.P,U5,7,COM*%
%TO.N,GND*%
X76200000Y-41250000D03*
%TO.P,U5,8,VCC*%
%TO.N,+5V*%
X76200000Y-41750000D03*
%TD*%
D20*
%TO.P,D2,1,K*%
%TO.N,/NO1*%
X83500000Y-48261990D03*
D21*
%TO.P,D2,2,A*%
%TO.N,/CSOURCE*%
X83500000Y-45721990D03*
%TD*%
D25*
%TO.P,TH1,1*%
%TO.N,/CH2*%
X103000000Y-67250000D03*
D26*
%TO.P,TH1,2*%
%TO.N,GND*%
X99400000Y-67250000D03*
%TD*%
D27*
%TO.P,REF\u002A\u002A,1*%
%TO.N,N/C*%
X33500000Y-23500000D03*
D28*
X33500000Y-23500000D03*
%TD*%
D29*
%TO.P,U4,1,AVDD*%
%TO.N,Net-(U4-AVDD)*%
X127000000Y-59859949D03*
%TO.P,U4,2,AGND*%
%TO.N,GND*%
X127000000Y-59209949D03*
%TO.P,U4,3,REFIN-*%
X127000000Y-58559949D03*
%TO.P,U4,4,REFIN+/OUT*%
%TO.N,Net-(U4-REFIN+{slash}OUT)*%
X127000000Y-57909949D03*
%TO.P,U4,5,CH0*%
%TO.N,/CH0*%
X127000000Y-57259949D03*
%TO.P,U4,6,CH1*%
%TO.N,/CH1*%
X127000000Y-56609949D03*
%TO.P,U4,7,CH2*%
%TO.N,/CH2*%
X127000000Y-55959949D03*
%TO.P,U4,8,CH3*%
%TO.N,/CH3*%
X127000000Y-55309949D03*
%TO.P,U4,9,CH4*%
%TO.N,/CH4*%
X127000000Y-54659949D03*
%TO.P,U4,10,CH5*%
%TO.N,/CH5*%
X127000000Y-54009949D03*
%TO.P,U4,11,CH6*%
%TO.N,/CH6*%
X121275000Y-54009949D03*
%TO.P,U4,12,CH7*%
%TO.N,/CH7*%
X121275000Y-54659949D03*
%TO.P,U4,13,~{CS}*%
%TO.N,Net-(U4-~{CS})*%
X121275000Y-55309949D03*
%TO.P,U4,14,SCK*%
%TO.N,Net-(U4-SCK)*%
X121275000Y-55959949D03*
%TO.P,U4,15,SDI*%
%TO.N,Net-(U4-SDI)*%
X121275000Y-56609949D03*
%TO.P,U4,16,SDO*%
%TO.N,Net-(U4-SDO)*%
X121275000Y-57259949D03*
%TO.P,U4,17,~{IRQ}/MDAT*%
%TO.N,Net-(U4-~{IRQ}{slash}MDAT)*%
X121275000Y-57909949D03*
%TO.P,U4,18,MCLK*%
%TO.N,Net-(U4-MCLK)*%
X121275000Y-58559949D03*
%TO.P,U4,19,DGND*%
%TO.N,GND*%
X121275000Y-59209949D03*
%TO.P,U4,20,DVDD*%
%TO.N,Net-(U4-DVDD)*%
X121275000Y-59859949D03*
%TD*%
D12*
%TO.P,R7,1*%
%TO.N,/~{IRQ}*%
X114850000Y-58759949D03*
%TO.P,R7,2*%
%TO.N,Net-(U4-~{IRQ}{slash}MDAT)*%
X116500000Y-58759949D03*
%TD*%
D30*
%TO.P,TH2,1*%
%TO.N,/CH1*%
X108600000Y-68100000D03*
%TO.P,TH2,2*%
%TO.N,GND*%
X108600000Y-69750000D03*
%TD*%
D11*
%TO.P,TP23,1,1*%
%TO.N,+3.3VA*%
X128500000Y-67500000D03*
%TD*%
%TO.P,TP27,1,1*%
%TO.N,GND*%
X128500000Y-71000000D03*
%TD*%
D27*
%TO.P,REF\u002A\u002A,1*%
%TO.N,N/C*%
X134500000Y-74500000D03*
D28*
X134500000Y-74500000D03*
%TD*%
D12*
%TO.P,RFB5,1*%
%TO.N,Net-(PD1-K)*%
X122762500Y-35903699D03*
%TO.P,RFB5,2*%
%TO.N,Net-(U9-W2)*%
X124412500Y-35903699D03*
%TD*%
D11*
%TO.P,TP18,1,1*%
%TO.N,/NO0*%
X82400000Y-40300000D03*
%TD*%
D18*
%TO.P,,*%
%TO.N,*%
X38500000Y-75000000D03*
%TD*%
D14*
%TO.P,C9,1*%
%TO.N,Net-(U2-CF+)*%
X74410794Y-23832445D03*
%TO.P,C9,2*%
%TO.N,Net-(U2-CF-)*%
X75960794Y-23832445D03*
%TD*%
%TO.P,C6,1*%
%TO.N,Net-(U4-REFIN+{slash}OUT)*%
X128750000Y-58300000D03*
%TO.P,C6,2*%
%TO.N,GND*%
X130300000Y-58300000D03*
%TD*%
D31*
%TO.P,R23,1*%
%TO.N,/Thermistor_On*%
X112000000Y-69750000D03*
%TO.P,R23,2*%
%TO.N,/CH0*%
X112000000Y-68100000D03*
%TD*%
D12*
%TO.P,R9,1*%
%TO.N,/MOSI*%
X114850000Y-55759949D03*
%TO.P,R9,2*%
%TO.N,Net-(U4-SDI)*%
X116500000Y-55759949D03*
%TD*%
D11*
%TO.P,TP36,1,1*%
%TO.N,Net-(U3-VBUS)*%
X36100000Y-47200000D03*
%TD*%
D31*
%TO.P,R22,1*%
%TO.N,/Thermistor_On*%
X103000000Y-71150000D03*
%TO.P,R22,2*%
%TO.N,/CH2*%
X103000000Y-69500000D03*
%TD*%
D11*
%TO.P,TP16,1,1*%
%TO.N,-0.23V*%
X85700000Y-27500000D03*
%TD*%
%TO.P,TP15,1,1*%
%TO.N,/MISO*%
X88953039Y-57249675D03*
%TD*%
%TO.P,TP13,1,1*%
%TO.N,/SCK*%
X88953039Y-53749675D03*
%TD*%
D27*
%TO.P,REF\u002A\u002A,1*%
%TO.N,N/C*%
X134500000Y-23500000D03*
D28*
X134500000Y-23500000D03*
%TD*%
D14*
%TO.P,C4,1*%
%TO.N,Net-(U4-AVDD)*%
X128450000Y-62759949D03*
%TO.P,C4,2*%
%TO.N,GND*%
X130000000Y-62759949D03*
%TD*%
D11*
%TO.P,TP9,1,1*%
%TO.N,+3.3V*%
X63100000Y-55300000D03*
%TD*%
D14*
%TO.P,C24,1*%
%TO.N,+5V*%
X69950500Y-57725500D03*
%TO.P,C24,2*%
%TO.N,GND*%
X71500500Y-57725500D03*
%TD*%
D11*
%TO.P,TP5,1,1*%
%TO.N,/CH2*%
X108600000Y-65300000D03*
%TD*%
D27*
%TO.P,REF\u002A\u002A,1*%
%TO.N,N/C*%
X33500000Y-74500000D03*
D28*
X33500000Y-74500000D03*
%TD*%
D11*
%TO.P,TP19,1,1*%
%TO.N,/NO1*%
X79700000Y-44300000D03*
%TD*%
D12*
%TO.P,R10,1*%
%TO.N,/SCK*%
X114850000Y-54259949D03*
%TO.P,R10,2*%
%TO.N,Net-(U4-SCK)*%
X116500000Y-54259949D03*
%TD*%
D11*
%TO.P,TP14,1,1*%
%TO.N,/MOSI*%
X86000000Y-55500000D03*
%TD*%
%TO.P,TP12,1,1*%
%TO.N,/~{MCP_CS}*%
X86000000Y-52000000D03*
%TD*%
%TO.P,TP37,1,1*%
%TO.N,/~{IRQ}*%
X85980192Y-58914972D03*
%TD*%
D12*
%TO.P,R11,1*%
%TO.N,/~{MCP_CS}*%
X114850000Y-52759949D03*
%TO.P,R11,2*%
%TO.N,Net-(U4-~{CS})*%
X116500000Y-52759949D03*
%TD*%
D32*
%TO.P,L1,1*%
%TO.N,+3.3V*%
X66450500Y-61300500D03*
%TO.P,L1,2*%
%TO.N,Net-(U6-L)*%
X66450500Y-59725500D03*
%TD*%
D13*
%TO.P,C26,1*%
%TO.N,+5V*%
X118592500Y-68084949D03*
%TO.P,C26,2*%
%TO.N,GND*%
X118592500Y-69634949D03*
%TD*%
D19*
%TO.P,R15,1*%
%TO.N,/CH4*%
X134000000Y-38259949D03*
%TO.P,R15,2*%
%TO.N,/PD1_SIG*%
X132350000Y-38259949D03*
%TD*%
D11*
%TO.P,TP3,1,1*%
%TO.N,/CH4*%
X134614892Y-45000000D03*
%TD*%
D31*
%TO.P,R21,1*%
%TO.N,/Thermistor_On*%
X110200000Y-69750000D03*
%TO.P,R21,2*%
%TO.N,/CH1*%
X110200000Y-68100000D03*
%TD*%
D19*
%TO.P,Rout1,1*%
%TO.N,/CSOURCE*%
X73650000Y-42250000D03*
%TO.P,Rout1,2*%
%TO.N,Net-(Rout1-Pad2)*%
X72000000Y-42250000D03*
%TD*%
D14*
%TO.P,C23,1*%
%TO.N,+3.3V*%
X68100500Y-64075500D03*
%TO.P,C23,2*%
%TO.N,GND*%
X69650500Y-64075500D03*
%TD*%
D18*
%TO.P,REF\u002A\u002A,*%
%TO.N,*%
X40000000Y-23500000D03*
%TD*%
D33*
%TO.P,U6,1,VIN*%
%TO.N,+3.3V*%
X68150500Y-61225500D03*
%TO.P,U6,2,FB*%
%TO.N,+5V*%
X68800500Y-61225500D03*
%TO.P,U6,3,GND*%
%TO.N,GND*%
X69450500Y-61225500D03*
%TO.P,U6,4,VOUT*%
%TO.N,+5V*%
X69450500Y-59025500D03*
%TO.P,U6,5,L*%
%TO.N,Net-(U6-L)*%
X68800500Y-59025500D03*
%TO.P,U6,6,EN*%
%TO.N,/EnablePower*%
X68150500Y-59025500D03*
%TD*%
D11*
%TO.P,TP33,1,1*%
%TO.N,/SDA*%
X63900000Y-25200000D03*
%TD*%
%TO.P,TP34,1,1*%
%TO.N,/Thermistor_On*%
X94000000Y-70100000D03*
%TD*%
%TO.P,TP20,1,1*%
%TO.N,/NO2*%
X80500000Y-37500000D03*
%TD*%
%TO.P,TP1,1,1*%
%TO.N,/CH0*%
X115900000Y-66900000D03*
%TD*%
%TO.P,TP25,1,1*%
%TO.N,/IN1*%
X63500000Y-49500000D03*
%TD*%
%TO.P,TP17,1,1*%
%TO.N,+5V*%
X69750000Y-48250000D03*
%TD*%
D20*
%TO.P,PD1,1,K*%
%TO.N,Net-(PD1-K)*%
X118195061Y-32742046D03*
D21*
%TO.P,PD1,2,A*%
%TO.N,-0.23V*%
X118195061Y-35282046D03*
%TD*%
D12*
%TO.P,R5,1*%
%TO.N,+3.3V*%
X114850000Y-61759949D03*
%TO.P,R5,2*%
%TO.N,Net-(U4-DVDD)*%
X116500000Y-61759949D03*
%TD*%
D11*
%TO.P,TP4,1,1*%
%TO.N,/CH5*%
X127700000Y-51000000D03*
%TD*%
D19*
%TO.P,R1,1*%
%TO.N,/PD1_SIG*%
X118562500Y-38259949D03*
%TO.P,R1,2*%
%TO.N,-0.23V*%
X116912500Y-38259949D03*
%TD*%
D11*
%TO.P,TP11,1,1*%
%TO.N,/EnablePower*%
X67000000Y-50400000D03*
%TD*%
D34*
%TO.P,U9,1,O1*%
%TO.N,unconnected-(U9-O1-Pad1)*%
X124662500Y-43628699D03*
%TO.P,U9,2,A1*%
%TO.N,/PD2_SIG*%
X125312500Y-43628699D03*
%TO.P,U9,3,W1*%
%TO.N,Net-(U9-W1)*%
X125962500Y-43628699D03*
%TO.P,U9,4,B1*%
%TO.N,unconnected-(U9-B1-Pad4)*%
X126612500Y-43628699D03*
%TO.P,U9,5,VDD*%
%TO.N,+3.3VA*%
X127262500Y-43628699D03*
%TO.P,U9,6,~{SHDN}*%
X127912500Y-43628699D03*
%TO.P,U9,7,SCL*%
%TO.N,/SCL*%
X128562500Y-43628699D03*
%TO.P,U9,8,SDA*%
%TO.N,/SDA*%
X129212500Y-43628699D03*
%TO.P,U9,9,AD0*%
%TO.N,GND*%
X129212500Y-37903699D03*
%TO.P,U9,10,AD1*%
X128562500Y-37903699D03*
%TO.P,U9,11,DGND*%
X127912500Y-37903699D03*
%TO.P,U9,12,VSS*%
X127262500Y-37903699D03*
%TO.P,U9,13,O2*%
%TO.N,unconnected-(U9-O2-Pad13)*%
X126612500Y-37903699D03*
%TO.P,U9,14,B2*%
%TO.N,unconnected-(U9-B2-Pad14)*%
X125962500Y-37903699D03*
%TO.P,U9,15,W2*%
%TO.N,Net-(U9-W2)*%
X125312500Y-37903699D03*
%TO.P,U9,16,A2*%
%TO.N,/PD1_SIG*%
X124662500Y-37903699D03*
%TD*%
D19*
%TO.P,R3,1*%
%TO.N,/NO2*%
X78000000Y-38250000D03*
%TO.P,R3,2*%
%TO.N,/CSOURCE*%
X76350000Y-38250000D03*
%TD*%
D35*
%TO.P,U8,1,IN*%
%TO.N,+5V*%
X120525000Y-68359949D03*
%TO.P,U8,2,GND*%
%TO.N,GND*%
X120525000Y-69309949D03*
%TO.P,U8,3,EN*%
%TO.N,+5V*%
X120525000Y-70259949D03*
%TO.P,U8,4,N/C*%
%TO.N,unconnected-(U8-N{slash}C-Pad4)*%
X122800000Y-70259949D03*
%TO.P,U8,5,OUT*%
%TO.N,+3.3VA*%
X122800000Y-68359949D03*
%TD*%
D20*
%TO.P,PD2,1,K*%
%TO.N,Net-(PD2-K)*%
X118195061Y-45221939D03*
D21*
%TO.P,PD2,2,A*%
%TO.N,-0.23V*%
X118195061Y-47761939D03*
%TD*%
D30*
%TO.P,R24,1*%
%TO.N,/CH0*%
X113510000Y-68100000D03*
%TO.P,R24,2*%
%TO.N,GND*%
X113510000Y-69750000D03*
%TD*%
D14*
%TO.P,C25,1*%
%TO.N,+3.3V*%
X68050500Y-62575500D03*
%TO.P,C25,2*%
%TO.N,GND*%
X69600500Y-62575500D03*
%TD*%
D12*
%TO.P,R4,1*%
%TO.N,+3.3VA*%
X125350000Y-62759949D03*
%TO.P,R4,2*%
%TO.N,Net-(U4-AVDD)*%
X127000000Y-62759949D03*
%TD*%
D31*
%TO.P,R12,1*%
%TO.N,+3.3V*%
X111000000Y-60409949D03*
%TO.P,R12,2*%
%TO.N,/~{IRQ}*%
X111000000Y-58759949D03*
%TD*%
D11*
%TO.P,TP24,1,1*%
%TO.N,Net-(U3-VBAT)*%
X35900000Y-42500000D03*
%TD*%
D12*
%TO.P,R8,1*%
%TO.N,/MISO*%
X114850000Y-57259949D03*
%TO.P,R8,2*%
%TO.N,Net-(U4-SDO)*%
X116500000Y-57259949D03*
%TD*%
D36*
%TO.P,JP1,1,A*%
%TO.N,+5V*%
X64500000Y-43300000D03*
%TO.P,JP1,2,C*%
%TO.N,Net-(JP1-C)*%
X64500000Y-42000000D03*
%TO.P,JP1,3,B*%
%TO.N,+3.3V*%
X64500000Y-40700000D03*
%TD*%
D31*
%TO.P,FB1,1*%
%TO.N,Net-(U2-VOUT)*%
X82752991Y-26900000D03*
%TO.P,FB1,2*%
%TO.N,-0.23V*%
X82752991Y-25250000D03*
%TD*%
D17*
%TO.P,C13,1*%
%TO.N,/CH5*%
X128850000Y-47259949D03*
%TO.P,C13,2*%
%TO.N,GND*%
X127300000Y-47259949D03*
%TD*%
D13*
%TO.P,C20,1*%
%TO.N,+3.3V*%
X70975000Y-27550000D03*
%TO.P,C20,2*%
%TO.N,GND*%
X70975000Y-29100000D03*
%TD*%
D37*
%TO.P,U3,1,RESET*%
%TO.N,unconnected-(U3-RESET-Pad1)*%
X59500000Y-31480000D03*
%TO.P,U3,2,3.3V*%
%TO.N,+3.3V*%
X59500000Y-34020000D03*
%TO.P,U3,3,21_(AREF)*%
%TO.N,unconnected-(U3-21_(AREF)-Pad3)*%
X59500000Y-36560000D03*
%TO.P,U3,4,GND*%
%TO.N,GND*%
X59500000Y-39100000D03*
%TO.P,U3,5,14_(A0)*%
%TO.N,unconnected-(U3-14_(A0)-Pad5)*%
X59500000Y-41640000D03*
%TO.P,U3,6,15_(A1)*%
%TO.N,unconnected-(U3-15_(A1)-Pad6)*%
X59500000Y-44180000D03*
%TO.P,U3,7,16_(A2)*%
%TO.N,unconnected-(U3-16_(A2)-Pad7)*%
X59500000Y-46720000D03*
%TO.P,U3,8,17_(A3)*%
%TO.N,/IN1*%
X59500000Y-49260000D03*
%TO.P,U3,9,18_(A4)*%
%TO.N,/IN2*%
X59500000Y-51800000D03*
%TO.P,U3,10,19_(A5)*%
%TO.N,unconnected-(U3-19_(A5)-Pad10)*%
X59500000Y-54340000D03*
%TO.P,U3,11,26_(SCK)*%
%TO.N,/SCK*%
X59500000Y-56880000D03*
%TO.P,U3,12,25_(MOSI)*%
%TO.N,/MOSI*%
X59500000Y-59420000D03*
%TO.P,U3,13,24_(MISO)*%
%TO.N,/MISO*%
X59500000Y-61960000D03*
%TO.P,U3,14,1_(RX)*%
%TO.N,unconnected-(U3-1_(RX)-Pad14)*%
X59500000Y-64500000D03*
%TO.P,U3,15,0_(TX)*%
%TO.N,unconnected-(U3-0_(TX)-Pad15)*%
X59500000Y-67040000D03*
%TO.P,U3,16,2_(D2)*%
%TO.N,unconnected-(U3-2_(D2)-Pad16)*%
X59500000Y-69580000D03*
%TO.P,U3,17,VBAT*%
%TO.N,Net-(U3-VBAT)*%
X39180000Y-41640000D03*
%TO.P,U3,18,EN*%
%TO.N,unconnected-(U3-EN-Pad18)*%
X39180000Y-44180000D03*
%TO.P,U3,19,VBUS*%
%TO.N,Net-(U3-VBUS)*%
X39180000Y-46720000D03*
%TO.P,U3,20,13_(D13)*%
%TO.N,/~{MCP_CS}*%
X39180000Y-49260000D03*
%TO.P,U3,21,12_(D12)*%
%TO.N,/EnablePower*%
X39180000Y-51800000D03*
%TO.P,U3,22,11_(D11)*%
%TO.N,/Thermistor_On*%
X39180000Y-54340000D03*
%TO.P,U3,23,10_(D10)*%
%TO.N,unconnected-(U3-10_(D10)-Pad23)*%
X39180000Y-56880000D03*
%TO.P,U3,24,9_(D9)*%
%TO.N,/~{IRQ}*%
X39180000Y-59420000D03*
%TO.P,U3,25,6_(D6)*%
%TO.N,unconnected-(U3-6_(D6)-Pad25)*%
X39180000Y-61960000D03*
%TO.P,U3,26,5_(D5)*%
%TO.N,unconnected-(U3-5_(D5)-Pad26)*%
X39180000Y-64500000D03*
%TO.P,U3,27,23_(SCL)*%
%TO.N,/SCL*%
X39180000Y-67040000D03*
%TO.P,U3,28,22_(SDA)*%
%TO.N,/SDA*%
X39180000Y-69580000D03*
%TD*%
D38*
%TO.N,GND*%
X120400000Y-61200000D03*
X118300000Y-50800000D03*
X94700000Y-35400000D03*
X74200000Y-47500000D03*
X74100000Y-37100000D03*
X114500000Y-69800000D03*
X115400000Y-30800000D03*
X117500000Y-74100000D03*
X131550000Y-51750000D03*
X136400000Y-52300000D03*
X96600000Y-68500000D03*
X132000000Y-50800000D03*
X130700000Y-61200000D03*
X136400000Y-50400000D03*
X132400000Y-60600000D03*
X93100000Y-31400000D03*
X131900000Y-43200000D03*
X100200000Y-63900000D03*
X133600000Y-34700000D03*
X71800000Y-29100000D03*
X126350000Y-73150000D03*
X132200000Y-34200000D03*
X131600000Y-39800000D03*
X136300000Y-37400000D03*
X85700000Y-31000000D03*
X75300000Y-35900000D03*
X107600000Y-69600000D03*
X130100000Y-71000000D03*
X109600000Y-62300000D03*
X70900000Y-62600000D03*
X120800000Y-50800000D03*
X126900000Y-48400000D03*
X135400000Y-36500000D03*
X136400000Y-38800000D03*
X132400000Y-56400000D03*
X86300000Y-50500000D03*
X77100000Y-34100000D03*
X122300000Y-59200000D03*
X121100000Y-37300000D03*
X94600000Y-32900000D03*
X107000000Y-62300000D03*
X136400000Y-41000000D03*
X110500000Y-44400000D03*
X124200000Y-48500000D03*
X108800000Y-74100000D03*
X71200000Y-44500000D03*
X81500000Y-31000000D03*
X118500000Y-40604699D03*
X130000000Y-36300000D03*
X111800000Y-62300000D03*
X130750000Y-52550000D03*
X111100000Y-34900000D03*
X120300000Y-74100000D03*
X132400000Y-58400000D03*
X77248514Y-41129148D03*
X132400000Y-66000000D03*
X110500000Y-36000000D03*
X116500000Y-50600000D03*
X104100000Y-63900000D03*
X132000000Y-49500000D03*
X83200000Y-50500000D03*
X94700000Y-47700000D03*
X94500000Y-49600000D03*
X123750000Y-52450000D03*
X119300000Y-30700000D03*
X127900000Y-36300000D03*
X113850000Y-62450000D03*
X132000000Y-46800000D03*
X124400000Y-53800000D03*
X73050000Y-46350000D03*
X125800000Y-58500000D03*
X133550000Y-55150000D03*
X114800000Y-48900000D03*
X110500000Y-42100000D03*
X74300000Y-26300000D03*
X80500000Y-50500000D03*
X127300000Y-36300000D03*
X125000000Y-70700000D03*
X71100000Y-63900000D03*
X117900000Y-63200000D03*
X130400000Y-57400000D03*
X121700000Y-30700000D03*
X126300000Y-40604699D03*
X132000000Y-45500000D03*
X123200000Y-40604699D03*
X116800000Y-30700000D03*
X123300000Y-43200000D03*
X132400000Y-62700000D03*
X127800000Y-40604699D03*
X77100000Y-28300000D03*
X124300000Y-74100000D03*
X69700000Y-30100000D03*
X102600000Y-74100000D03*
X110500000Y-40200000D03*
X110500000Y-37600000D03*
X99900000Y-74100000D03*
X79550000Y-31650000D03*
X115000000Y-74100000D03*
X124400000Y-55600000D03*
X134850000Y-53850000D03*
X124150000Y-56750000D03*
X113200000Y-47300000D03*
X124900000Y-40604699D03*
X123299000Y-59200000D03*
X75900000Y-49200000D03*
X123100000Y-49600000D03*
X92900000Y-50500000D03*
X115600000Y-63200000D03*
X123050000Y-31450000D03*
X105350000Y-62950000D03*
X130100000Y-41400000D03*
X112100000Y-74100000D03*
X122600000Y-60400000D03*
X96600000Y-67000000D03*
X94700000Y-41300000D03*
X132400000Y-67100000D03*
X131400000Y-59800000D03*
X72000000Y-58600000D03*
X94700000Y-44500000D03*
X136400000Y-43400000D03*
X136400000Y-45500000D03*
X114500000Y-31700000D03*
X120000000Y-40604699D03*
X120750000Y-62350000D03*
X130000000Y-53300000D03*
X120400000Y-37300000D03*
X134500000Y-35600000D03*
X78900000Y-39700000D03*
X102100000Y-63900000D03*
X80500000Y-24200000D03*
X90200000Y-31000000D03*
X131100000Y-62800000D03*
X121400000Y-40604699D03*
X97300000Y-74100000D03*
X120000000Y-63100000D03*
X111600000Y-45700000D03*
X118200000Y-71200000D03*
X129800000Y-34200000D03*
X81400000Y-28700000D03*
X90200000Y-50500000D03*
X121750000Y-61350000D03*
X98400000Y-63900000D03*
X124650000Y-33050000D03*
X131000000Y-42300000D03*
X94700000Y-39000000D03*
X72400000Y-37100000D03*
X122600000Y-51300000D03*
X105500000Y-74100000D03*
X117100000Y-40604699D03*
X132200000Y-68900000D03*
X126700000Y-34200000D03*
X132000000Y-44000000D03*
X96600000Y-65200000D03*
X123299000Y-57700000D03*
X132400000Y-64300000D03*
X116300000Y-40500000D03*
X132000000Y-48200000D03*
X77700000Y-28700000D03*
X131050000Y-70050000D03*
X136400000Y-48300000D03*
X125800000Y-59200000D03*
%TO.N,+5V*%
X75500000Y-42600000D03*
X80200000Y-68000000D03*
X71300000Y-60800000D03*
%TO.N,+3.3VA*%
X119900000Y-43100000D03*
X127200000Y-45300000D03*
%TO.N,/~{IRQ}*%
X47100000Y-59200000D03*
%TO.N,/~{MCP_CS}*%
X74400000Y-51900000D03*
X63100000Y-53300000D03*
%TO.N,/EnablePower*%
X62400000Y-38300000D03*
X64100000Y-37200000D03*
X40900000Y-49700000D03*
%TO.N,/IN1*%
X75000000Y-41300000D03*
%TO.N,/IN2*%
X75224265Y-40224265D03*
%TO.N,/SCL*%
X128499997Y-45000000D03*
%TO.N,/SDA*%
X42900000Y-32100000D03*
X129300000Y-45000000D03*
%TD*%
D39*
%TO.N,Net-(U4-AVDD)*%
X128000000Y-61259949D02*
X128000000Y-60859949D01*
X128000000Y-60859949D02*
X127000000Y-59859949D01*
X128450000Y-62759949D02*
X128450000Y-61709949D01*
X128450000Y-61709949D02*
X128000000Y-61259949D01*
X127000000Y-62759949D02*
X128450000Y-62759949D01*
D40*
%TO.N,Net-(U4-REFIN+{slash}OUT)*%
X127000000Y-57909949D02*
X128100000Y-57909949D01*
X128100000Y-57909949D02*
X128725000Y-58534949D01*
%TO.N,GND*%
X121200000Y-37400000D02*
X121100000Y-37300000D01*
D41*
X92900000Y-50500000D02*
X90200000Y-50500000D01*
X110500000Y-40200000D02*
X110500000Y-37600000D01*
D40*
X126100000Y-59200000D02*
X126109949Y-59209949D01*
D41*
X132400000Y-58400000D02*
X132400000Y-60600000D01*
X120000000Y-63100000D02*
X119900000Y-63200000D01*
D40*
X122941199Y-42841199D02*
X123300000Y-43200000D01*
D41*
X134850000Y-53850000D02*
X133550000Y-55150000D01*
X126300000Y-40604699D02*
X127800000Y-40604699D01*
X130100000Y-71000000D02*
X131050000Y-70050000D01*
D40*
X129212500Y-37087500D02*
X130000000Y-36300000D01*
D41*
X123299000Y-59701000D02*
X122600000Y-60400000D01*
D40*
X130000000Y-62759949D02*
X131059949Y-62759949D01*
D41*
X104400000Y-63900000D02*
X104100000Y-63900000D01*
D40*
X127300000Y-48000000D02*
X126900000Y-48400000D01*
D41*
X132000000Y-50800000D02*
X132000000Y-51300000D01*
X136400000Y-48300000D02*
X136400000Y-50400000D01*
D40*
X69450500Y-61225500D02*
X69450500Y-63875500D01*
X70975000Y-29100000D02*
X71800000Y-29100000D01*
D41*
X115600000Y-63200000D02*
X114600000Y-63200000D01*
D40*
X130300000Y-58300000D02*
X130300000Y-57500000D01*
D41*
X127800000Y-40604699D02*
X129304699Y-40604699D01*
D40*
X79062940Y-28609949D02*
X77790051Y-28609949D01*
D41*
X108800000Y-74100000D02*
X105500000Y-74100000D01*
D40*
X131640051Y-39759949D02*
X131600000Y-39800000D01*
X69450500Y-63875500D02*
X69650500Y-64075500D01*
X120550000Y-38616199D02*
X120550000Y-37450000D01*
D41*
X120500000Y-30700000D02*
X121700000Y-30700000D01*
X122600000Y-50100000D02*
X122600000Y-50800000D01*
X124300000Y-74100000D02*
X120300000Y-74100000D01*
X123750000Y-52450000D02*
X124300000Y-53000000D01*
X121700000Y-30700000D02*
X122300000Y-30700000D01*
D40*
X127912500Y-36312500D02*
X127912500Y-37903699D01*
D41*
X115500000Y-30700000D02*
X116800000Y-30700000D01*
X124400000Y-55600000D02*
X124400000Y-56500000D01*
D40*
X80589477Y-24289477D02*
X80500000Y-24200000D01*
D41*
X94700000Y-41300000D02*
X94700000Y-44500000D01*
X132400000Y-64300000D02*
X132400000Y-66000000D01*
X123050000Y-31450000D02*
X124650000Y-33050000D01*
X132400000Y-60600000D02*
X132400000Y-62700000D01*
X85700000Y-31000000D02*
X90200000Y-31000000D01*
X126700000Y-34200000D02*
X129800000Y-34200000D01*
X96600000Y-67000000D02*
X96600000Y-68500000D01*
X94700000Y-33000000D02*
X94700000Y-35400000D01*
D40*
X79000000Y-40250000D02*
X79000000Y-39800000D01*
D41*
X129800000Y-34200000D02*
X132200000Y-34200000D01*
D40*
X79000000Y-39800000D02*
X78900000Y-39700000D01*
D41*
X119300000Y-30700000D02*
X120500000Y-30700000D01*
X99900000Y-74100000D02*
X97300000Y-74100000D01*
X102600000Y-74100000D02*
X99900000Y-74100000D01*
X120800000Y-50800000D02*
X118300000Y-50800000D01*
X124400000Y-53000000D02*
X124400000Y-53800000D01*
D40*
X122290051Y-59209949D02*
X122300000Y-59200000D01*
D41*
X93100000Y-31400000D02*
X94600000Y-32900000D01*
D40*
X77200000Y-27400000D02*
X77200000Y-28200000D01*
D41*
X104100000Y-63900000D02*
X102100000Y-63900000D01*
X131050000Y-70050000D02*
X132200000Y-68900000D01*
X94700000Y-44500000D02*
X94700000Y-47700000D01*
X132400000Y-68700000D02*
X132400000Y-67100000D01*
D40*
X120550000Y-37450000D02*
X120400000Y-37300000D01*
X107750000Y-69750000D02*
X107600000Y-69600000D01*
D41*
X77200000Y-50500000D02*
X75900000Y-49200000D01*
X109600000Y-62300000D02*
X107000000Y-62300000D01*
X111100000Y-34900000D02*
X111500000Y-34500000D01*
X124300000Y-53000000D02*
X124400000Y-53000000D01*
X121400000Y-40604699D02*
X123200000Y-40604699D01*
X124400000Y-56500000D02*
X124150000Y-56750000D01*
X81500000Y-31000000D02*
X85700000Y-31000000D01*
X116300000Y-40500000D02*
X116404699Y-40604699D01*
X113200000Y-47300000D02*
X111600000Y-45700000D01*
X131900000Y-43200000D02*
X132000000Y-43300000D01*
D40*
X130300000Y-57500000D02*
X130400000Y-57400000D01*
X69650500Y-64075500D02*
X70924500Y-64075500D01*
X69475000Y-29100000D02*
X69475000Y-29875000D01*
X77127662Y-41250000D02*
X77248514Y-41129148D01*
D41*
X135400000Y-36500000D02*
X136300000Y-37400000D01*
X105500000Y-74100000D02*
X102600000Y-74100000D01*
D40*
X120550000Y-38616199D02*
X121200000Y-38616199D01*
X127262500Y-37903699D02*
X127262500Y-36337500D01*
D41*
X132000000Y-51300000D02*
X131550000Y-51750000D01*
X111600000Y-45700000D02*
X110500000Y-44600000D01*
X136400000Y-37500000D02*
X136400000Y-37700000D01*
X124400000Y-53800000D02*
X124400000Y-55600000D01*
X132000000Y-45500000D02*
X132000000Y-46800000D01*
X132400000Y-66000000D02*
X132400000Y-67100000D01*
X79550000Y-31650000D02*
X80200000Y-31000000D01*
X129304699Y-40604699D02*
X130100000Y-41400000D01*
X90200000Y-31000000D02*
X92700000Y-31000000D01*
X80500000Y-50500000D02*
X77200000Y-50500000D01*
X75900000Y-49200000D02*
X74200000Y-47500000D01*
D40*
X76200000Y-41250000D02*
X77127662Y-41250000D01*
D41*
X90200000Y-50500000D02*
X86300000Y-50500000D01*
X122300000Y-30700000D02*
X123050000Y-31450000D01*
X72400000Y-37100000D02*
X74100000Y-37100000D01*
D40*
X132500000Y-39759949D02*
X131640051Y-39759949D01*
D41*
X118300000Y-50800000D02*
X116700000Y-50800000D01*
D40*
X127000000Y-58559949D02*
X125859949Y-58559949D01*
X80724188Y-28650000D02*
X81350000Y-28650000D01*
D41*
X123299000Y-57601000D02*
X123299000Y-57700000D01*
X104500000Y-63800000D02*
X104400000Y-63900000D01*
X136400000Y-41000000D02*
X136400000Y-43400000D01*
D40*
X77790051Y-28609949D02*
X77700000Y-28700000D01*
X81350000Y-28650000D02*
X81400000Y-28700000D01*
D41*
X132400000Y-62700000D02*
X132400000Y-64300000D01*
D40*
X118592500Y-69634949D02*
X118592500Y-70807500D01*
D41*
X106000000Y-62300000D02*
X105350000Y-62950000D01*
D40*
X124792500Y-70492500D02*
X125000000Y-70700000D01*
D41*
X94700000Y-39000000D02*
X94700000Y-41300000D01*
X114800000Y-48900000D02*
X113200000Y-47300000D01*
X110500000Y-36000000D02*
X110500000Y-35500000D01*
X116700000Y-50800000D02*
X116500000Y-50600000D01*
D40*
X114450000Y-69750000D02*
X114500000Y-69800000D01*
D41*
X98400000Y-63900000D02*
X97900000Y-63900000D01*
X124150000Y-56750000D02*
X123299000Y-57601000D01*
X131550000Y-51750000D02*
X130750000Y-52550000D01*
X113700000Y-62300000D02*
X112100000Y-62300000D01*
X83200000Y-50500000D02*
X80500000Y-50500000D01*
X133600000Y-34700000D02*
X134500000Y-35600000D01*
X133100000Y-34200000D02*
X133600000Y-34700000D01*
D40*
X118000000Y-61550000D02*
X119500000Y-61550000D01*
X128000000Y-36400000D02*
X128562500Y-36962500D01*
D41*
X72300000Y-37100000D02*
X72400000Y-37100000D01*
X122600000Y-60400000D02*
X122600000Y-60500000D01*
D40*
X74100000Y-26100000D02*
X74300000Y-26300000D01*
D41*
X102100000Y-63900000D02*
X100200000Y-63900000D01*
X117900000Y-63200000D02*
X115600000Y-63200000D01*
D40*
X121200000Y-38616199D02*
X121200000Y-37400000D01*
D41*
X116404699Y-40604699D02*
X117100000Y-40604699D01*
X116500000Y-50600000D02*
X114800000Y-48900000D01*
D40*
X69475000Y-29875000D02*
X69700000Y-30100000D01*
X125800000Y-59200000D02*
X126100000Y-59200000D01*
D41*
X132000000Y-48200000D02*
X132000000Y-49500000D01*
X105350000Y-62950000D02*
X104500000Y-63800000D01*
X122600000Y-60500000D02*
X121750000Y-61350000D01*
X132200000Y-34200000D02*
X133100000Y-34200000D01*
X96600000Y-65200000D02*
X96600000Y-67000000D01*
X116800000Y-30700000D02*
X119300000Y-30700000D01*
D40*
X127262500Y-36337500D02*
X127300000Y-36300000D01*
D41*
X114600000Y-63200000D02*
X113850000Y-62450000D01*
X73050000Y-46350000D02*
X71200000Y-44500000D01*
X126350000Y-73150000D02*
X125400000Y-74100000D01*
X94500000Y-49600000D02*
X93600000Y-50500000D01*
X132400000Y-56400000D02*
X132400000Y-58400000D01*
D40*
X129550000Y-61259949D02*
X129550000Y-62309949D01*
X129212500Y-37903699D02*
X129212500Y-37087500D01*
D41*
X120300000Y-74100000D02*
X117500000Y-74100000D01*
D40*
X120525000Y-69309949D02*
X118917500Y-69309949D01*
D41*
X133550000Y-55150000D02*
X132400000Y-56300000D01*
X136400000Y-52300000D02*
X134850000Y-53850000D01*
X93600000Y-50500000D02*
X92900000Y-50500000D01*
X136400000Y-45500000D02*
X136400000Y-48300000D01*
X132200000Y-68900000D02*
X132400000Y-68700000D01*
D40*
X69600500Y-62575500D02*
X70875500Y-62575500D01*
D41*
X94700000Y-47700000D02*
X94700000Y-49400000D01*
X124900000Y-40604699D02*
X126300000Y-40604699D01*
D40*
X127300000Y-47259949D02*
X127300000Y-48000000D01*
D41*
X120750000Y-62350000D02*
X120000000Y-63100000D01*
D40*
X71500500Y-58100500D02*
X72000000Y-58600000D01*
X113510000Y-69750000D02*
X114450000Y-69750000D01*
D41*
X117500000Y-74100000D02*
X115000000Y-74100000D01*
X112100000Y-62300000D02*
X111800000Y-62300000D01*
X80200000Y-31000000D02*
X81500000Y-31000000D01*
X110500000Y-35500000D02*
X111100000Y-34900000D01*
X125400000Y-74100000D02*
X124300000Y-74100000D01*
X122600000Y-50800000D02*
X122600000Y-51300000D01*
D40*
X120050000Y-61550000D02*
X120400000Y-61200000D01*
D41*
X130750000Y-52550000D02*
X130000000Y-53300000D01*
D40*
X108600000Y-69750000D02*
X107750000Y-69750000D01*
X126109949Y-59209949D02*
X127000000Y-59209949D01*
D41*
X94600000Y-32900000D02*
X94700000Y-33000000D01*
X124900000Y-33300000D02*
X125800000Y-34200000D01*
D40*
X130700000Y-60500000D02*
X131400000Y-59800000D01*
X130275000Y-60534949D02*
X130275000Y-60500000D01*
X130640051Y-61259949D02*
X130700000Y-61200000D01*
D41*
X110500000Y-37600000D02*
X110500000Y-36000000D01*
X124200000Y-48500000D02*
X123100000Y-49600000D01*
D40*
X71500500Y-57725500D02*
X71500500Y-58100500D01*
D41*
X136400000Y-50400000D02*
X136400000Y-52300000D01*
X132400000Y-56300000D02*
X132400000Y-56400000D01*
X116200000Y-40400000D02*
X116300000Y-40500000D01*
X132000000Y-43300000D02*
X132000000Y-44000000D01*
X119900000Y-63200000D02*
X117900000Y-63200000D01*
X128500000Y-71000000D02*
X126350000Y-73150000D01*
D40*
X70924500Y-64075500D02*
X71100000Y-63900000D01*
X80589477Y-25559039D02*
X80589477Y-24289477D01*
X128000000Y-36225000D02*
X127912500Y-36312500D01*
X119500000Y-61550000D02*
X120050000Y-61550000D01*
D41*
X92700000Y-31000000D02*
X93100000Y-31400000D01*
X122600000Y-50800000D02*
X120800000Y-50800000D01*
D40*
X118917500Y-69309949D02*
X118592500Y-69634949D01*
X125859949Y-58559949D02*
X125800000Y-58500000D01*
X131059949Y-62759949D02*
X131100000Y-62800000D01*
D41*
X114500000Y-31700000D02*
X115400000Y-30800000D01*
D40*
X77200000Y-28200000D02*
X77100000Y-28300000D01*
D41*
X123299000Y-57700000D02*
X123299000Y-59200000D01*
X115400000Y-30800000D02*
X115500000Y-30700000D01*
X71200000Y-44500000D02*
X71200000Y-44400000D01*
X121750000Y-61350000D02*
X120750000Y-62350000D01*
D40*
X130275000Y-60500000D02*
X130700000Y-60500000D01*
X129550000Y-61259949D02*
X130640051Y-61259949D01*
D41*
X123100000Y-49600000D02*
X122600000Y-50100000D01*
X136400000Y-43400000D02*
X136400000Y-45500000D01*
X124650000Y-33050000D02*
X124900000Y-33300000D01*
X120000000Y-40604699D02*
X121400000Y-40604699D01*
X96600000Y-68500000D02*
X96600000Y-68700000D01*
D40*
X124792500Y-69600000D02*
X124792500Y-70492500D01*
D41*
X74100000Y-37100000D02*
X75300000Y-35900000D01*
X97900000Y-63900000D02*
X96600000Y-65200000D01*
X110500000Y-44600000D02*
X110500000Y-44400000D01*
X75300000Y-35900000D02*
X77100000Y-34100000D01*
X136300000Y-37400000D02*
X136400000Y-37500000D01*
X100200000Y-63900000D02*
X98400000Y-63900000D01*
D40*
X122500000Y-42841199D02*
X122941199Y-42841199D01*
D41*
X131000000Y-42300000D02*
X131900000Y-43200000D01*
D40*
X127000000Y-58559949D02*
X127000000Y-59209949D01*
D41*
X74200000Y-47500000D02*
X73050000Y-46350000D01*
D40*
X129550000Y-61259949D02*
X130275000Y-60534949D01*
D41*
X110500000Y-44400000D02*
X110500000Y-42100000D01*
X134500000Y-35600000D02*
X135400000Y-36500000D01*
X125800000Y-34200000D02*
X126700000Y-34200000D01*
X130100000Y-41400000D02*
X131000000Y-42300000D01*
X94700000Y-49400000D02*
X94500000Y-49600000D01*
D40*
X70875500Y-62575500D02*
X70900000Y-62600000D01*
D41*
X123299000Y-59200000D02*
X123299000Y-59701000D01*
X112100000Y-74100000D02*
X108800000Y-74100000D01*
X117100000Y-40604699D02*
X118500000Y-40604699D01*
X132000000Y-46800000D02*
X132000000Y-48200000D01*
X115000000Y-74100000D02*
X112100000Y-74100000D01*
X130000000Y-53300000D02*
X129900000Y-53400000D01*
X107000000Y-62300000D02*
X106000000Y-62300000D01*
D40*
X72975000Y-26100000D02*
X74100000Y-26100000D01*
D41*
X136400000Y-38800000D02*
X136400000Y-41000000D01*
D40*
X121275000Y-59209949D02*
X122290051Y-59209949D01*
D41*
X110500000Y-42100000D02*
X110500000Y-40200000D01*
X136400000Y-37700000D02*
X136400000Y-38800000D01*
X77100000Y-34100000D02*
X79550000Y-31650000D01*
X94700000Y-35400000D02*
X94700000Y-39000000D01*
D40*
X129550000Y-62309949D02*
X130000000Y-62759949D01*
D41*
X128500000Y-71000000D02*
X130100000Y-71000000D01*
X113850000Y-62450000D02*
X113700000Y-62300000D01*
X132000000Y-44000000D02*
X132000000Y-45500000D01*
X111800000Y-62300000D02*
X109600000Y-62300000D01*
X122600000Y-51300000D02*
X123750000Y-52450000D01*
X86300000Y-50500000D02*
X83200000Y-50500000D01*
D40*
X118592500Y-70807500D02*
X118200000Y-71200000D01*
D41*
X123200000Y-40604699D02*
X124900000Y-40604699D01*
X118500000Y-40604699D02*
X120000000Y-40604699D01*
D40*
X128562500Y-36962500D02*
X128562500Y-37903699D01*
D41*
X132000000Y-49500000D02*
X132000000Y-50800000D01*
D39*
%TO.N,Net-(U4-DVDD)*%
X121275000Y-59859949D02*
X119640051Y-59859949D01*
X118000000Y-60000000D02*
X118000000Y-60183468D01*
X119640051Y-59859949D02*
X119500000Y-60000000D01*
X119500000Y-60000000D02*
X118000000Y-60000000D01*
X118000000Y-60183468D02*
X116500000Y-61683468D01*
X116500000Y-61683468D02*
X116500000Y-61759949D01*
D40*
X116500000Y-61759949D02*
X116500000Y-61500000D01*
D39*
%TO.N,Net-(U2-CF-)*%
X77200000Y-25071651D02*
X75960794Y-23832445D01*
X77200000Y-25450000D02*
X77200000Y-25071651D01*
%TO.N,Net-(U2-CF+)*%
X74410794Y-24014206D02*
X72975000Y-25450000D01*
X74410794Y-23832445D02*
X74410794Y-24014206D01*
%TO.N,Net-(U2-CRES)*%
X78498516Y-26100000D02*
X79039477Y-25559039D01*
X77200000Y-26100000D02*
X78498516Y-26100000D01*
%TO.N,Net-(U2-VOUT)*%
X79062940Y-27059949D02*
X82349838Y-27059949D01*
X78752991Y-26750000D02*
X79062940Y-27059949D01*
X80684137Y-27059949D02*
X80724188Y-27100000D01*
X79062940Y-27059949D02*
X80684137Y-27059949D01*
X77200000Y-26750000D02*
X78752991Y-26750000D01*
X82349838Y-27059949D02*
X82349838Y-27024350D01*
D42*
%TO.N,+3.3V*%
X66450500Y-61300500D02*
X67924500Y-61300500D01*
D39*
X72825000Y-27550000D02*
X72975000Y-27400000D01*
D43*
X67500500Y-61699500D02*
X67899500Y-61300500D01*
D39*
X110190051Y-59600000D02*
X93200000Y-59600000D01*
X59500000Y-34020000D02*
X64500000Y-39020000D01*
D43*
X67500500Y-62725500D02*
X67500500Y-61699500D01*
D39*
X69475000Y-27550000D02*
X72825000Y-27550000D01*
X69475000Y-27550000D02*
X68631314Y-27550000D01*
X111000000Y-60409949D02*
X110190051Y-59600000D01*
X68976500Y-64951500D02*
X68100500Y-64075500D01*
D43*
X68100500Y-63325500D02*
X68100500Y-64075500D01*
D40*
X68050500Y-64025500D02*
X68100500Y-64075500D01*
D39*
X82300000Y-61200000D02*
X78548500Y-64951500D01*
X113500000Y-60409949D02*
X114850000Y-61759949D01*
X78548500Y-64951500D02*
X68976500Y-64951500D01*
D43*
X67450500Y-62775500D02*
X65775500Y-62775500D01*
X67500500Y-62725500D02*
X68100500Y-63325500D01*
D39*
X62161314Y-34020000D02*
X59500000Y-34020000D01*
X68631314Y-27550000D02*
X62161314Y-34020000D01*
D43*
X67500500Y-62725500D02*
X67450500Y-62775500D01*
X63900000Y-60900000D02*
X63900000Y-56100000D01*
D39*
X93200000Y-59600000D02*
X91600000Y-61200000D01*
X111000000Y-60409949D02*
X113500000Y-60409949D01*
X69475000Y-27550000D02*
X70975000Y-27550000D01*
X64500000Y-39020000D02*
X64500000Y-40700000D01*
D43*
X65775500Y-62775500D02*
X63900000Y-60900000D01*
X63900000Y-56100000D02*
X63100000Y-55300000D01*
D39*
X91600000Y-61200000D02*
X82300000Y-61200000D01*
D42*
X67924500Y-61300500D02*
X67999500Y-61225500D01*
D40*
%TO.N,+5V*%
X69450500Y-60125501D02*
X69450500Y-59025500D01*
X68800500Y-61225500D02*
X68800500Y-60775501D01*
D41*
X69950500Y-58225500D02*
X69501500Y-58674500D01*
X69950500Y-57725500D02*
X69950500Y-58225500D01*
X69950500Y-59450500D02*
X71300000Y-60800000D01*
D39*
X84700000Y-72500000D02*
X80200000Y-68000000D01*
D41*
X69750000Y-48250000D02*
X69450000Y-48250000D01*
X69501500Y-58674500D02*
X69501500Y-59025500D01*
D39*
X120250000Y-68084949D02*
X120525000Y-68359949D01*
D41*
X69950500Y-57725500D02*
X69950500Y-59450500D01*
D40*
X76200000Y-41900000D02*
X75500000Y-42600000D01*
D41*
X69750000Y-52250000D02*
X69950500Y-52450500D01*
D39*
X114177449Y-72500000D02*
X84700000Y-72500000D01*
X121588500Y-68927561D02*
X121588500Y-69858948D01*
X120525000Y-68359949D02*
X121020888Y-68359949D01*
X118592500Y-68084949D02*
X120250000Y-68084949D01*
X118592500Y-68084949D02*
X114177449Y-72500000D01*
D41*
X69950500Y-52450500D02*
X69950500Y-57725500D01*
X69450000Y-48250000D02*
X64500000Y-43300000D01*
D39*
X121020888Y-68359949D02*
X121588500Y-68927561D01*
D40*
X76200000Y-41750000D02*
X76200000Y-41900000D01*
D39*
X121187499Y-70259949D02*
X120525000Y-70259949D01*
D41*
X69750000Y-52250000D02*
X69750000Y-48250000D01*
D40*
X68800500Y-60775501D02*
X69450500Y-60125501D01*
D39*
X121588500Y-69858948D02*
X121187499Y-70259949D01*
%TO.N,+3.3VA*%
X125350000Y-63447450D02*
X125350000Y-62759949D01*
D40*
X127262500Y-43628699D02*
X127912500Y-43628699D01*
X120158801Y-42841199D02*
X119900000Y-43100000D01*
X127262500Y-45237500D02*
X127200000Y-45300000D01*
D39*
X124792500Y-66034949D02*
X124792500Y-68050000D01*
D40*
X127262500Y-43628699D02*
X127262500Y-45237500D01*
D39*
X124792500Y-66034949D02*
X127034949Y-66034949D01*
X127034949Y-66034949D02*
X128500000Y-67500000D01*
D40*
X120550000Y-42841199D02*
X120158801Y-42841199D01*
D39*
X122800000Y-68359949D02*
X124367500Y-68359949D01*
X124792500Y-66034949D02*
X124792500Y-64004950D01*
X124792500Y-64004950D02*
X125350000Y-63447450D01*
D40*
%TO.N,/CSOURCE*%
X73650000Y-40750000D02*
X73850000Y-40750000D01*
X81390000Y-33210000D02*
X83500000Y-33210000D01*
X74000000Y-40400000D02*
X73650000Y-40750000D01*
X73850000Y-40750000D02*
X76350000Y-38250000D01*
X73650000Y-42250000D02*
X73650000Y-40750000D01*
X76350000Y-38250000D02*
X81390000Y-33210000D01*
X73650000Y-42250000D02*
X79650000Y-48250000D01*
%TO.N,/NO0*%
X83500000Y-35750000D02*
X83500000Y-40338424D01*
X83500000Y-40338424D02*
X82088424Y-41750000D01*
X82088424Y-41750000D02*
X79000000Y-41750000D01*
%TO.N,/NO1*%
X78000000Y-41573152D02*
X78000000Y-43250000D01*
X81528010Y-46290000D02*
X83500000Y-48261990D01*
X79000000Y-41250000D02*
X78323152Y-41250000D01*
X78323152Y-41250000D02*
X78000000Y-41573152D01*
X81040000Y-46290000D02*
X81528010Y-46290000D01*
X78000000Y-43250000D02*
X81040000Y-46290000D01*
D39*
%TO.N,-0.23V*%
X114482046Y-35282046D02*
X114482046Y-46382046D01*
X83450000Y-25250000D02*
X85700000Y-27500000D01*
X82752991Y-25250000D02*
X83450000Y-25250000D01*
D40*
X116912500Y-36564607D02*
X116912500Y-38259949D01*
D39*
X85700000Y-27500000D02*
X106700000Y-27500000D01*
D40*
X116994061Y-46560939D02*
X118195061Y-47761939D01*
X117175000Y-42259949D02*
X116994061Y-42440888D01*
X116912500Y-41997449D02*
X117175000Y-42259949D01*
D39*
X114482046Y-46382046D02*
X115861939Y-47761939D01*
D40*
X118195061Y-35282046D02*
X116912500Y-36564607D01*
X116994061Y-42440888D02*
X116994061Y-46560939D01*
D39*
X115861939Y-47761939D02*
X118195061Y-47761939D01*
X114482046Y-35282046D02*
X118195061Y-35282046D01*
X106700000Y-27500000D02*
X114482046Y-35282046D01*
D40*
%TO.N,/CH1*%
X124500000Y-60500000D02*
X124500000Y-58100000D01*
X124500000Y-58100000D02*
X125990051Y-56609949D01*
X119600000Y-65400000D02*
X124500000Y-60500000D01*
X108600000Y-68100000D02*
X110200000Y-68100000D01*
X112500000Y-65400000D02*
X119600000Y-65400000D01*
X110200000Y-68100000D02*
X112300000Y-66000000D01*
X125990051Y-56609949D02*
X127000000Y-56609949D01*
%TO.N,/CH0*%
X122549000Y-64500000D02*
X122549000Y-64451000D01*
X122549000Y-63651000D02*
X122549000Y-64500000D01*
X116700000Y-66700000D02*
X121050000Y-66700000D01*
X121050000Y-66700000D02*
X122549000Y-65201000D01*
X115900000Y-66900000D02*
X114700000Y-68100000D01*
X125000000Y-61200000D02*
X122549000Y-63651000D01*
X122549000Y-65201000D02*
X122549000Y-63900000D01*
X125000000Y-58300000D02*
X125000000Y-61200000D01*
X114700000Y-68100000D02*
X113510000Y-68100000D01*
X126040051Y-57259949D02*
X125000000Y-58300000D01*
X127000000Y-57259949D02*
X126040051Y-57259949D01*
X112000000Y-68100000D02*
X113510000Y-68100000D01*
D41*
%TO.N,Net-(U6-L)*%
X68253214Y-60225500D02*
X68800500Y-59678214D01*
X66950500Y-60225500D02*
X68253214Y-60225500D01*
X66450500Y-59725500D02*
X66950500Y-60225500D01*
D39*
X68800500Y-59025500D02*
X68800500Y-59678214D01*
D40*
%TO.N,/NO2*%
X78000000Y-38250000D02*
X79750000Y-38250000D01*
X78323152Y-40750000D02*
X78000000Y-40426848D01*
X79000000Y-40750000D02*
X78323152Y-40750000D01*
X79750000Y-38250000D02*
X80500000Y-37500000D01*
X78000000Y-40426848D02*
X78000000Y-38250000D01*
%TO.N,Net-(U4-MCLK)*%
X116500000Y-60259949D02*
X118200000Y-58559949D01*
X118200000Y-58559949D02*
X121275000Y-58559949D01*
%TO.N,Net-(U4-~{IRQ}{slash}MDAT)*%
X117350000Y-57909949D02*
X121275000Y-57909949D01*
X116500000Y-58759949D02*
X117350000Y-57909949D01*
%TO.N,/~{IRQ}*%
X47100000Y-59200000D02*
X46880000Y-59420000D01*
X114850000Y-58759949D02*
X111000000Y-58759949D01*
X111000000Y-58759949D02*
X86135215Y-58759949D01*
X86135215Y-58759949D02*
X85980192Y-58914972D01*
X46880000Y-59420000D02*
X39180000Y-59420000D01*
%TO.N,Net-(U4-SDO)*%
X116500000Y-57259949D02*
X121275000Y-57259949D01*
%TO.N,/MISO*%
X88953039Y-57249675D02*
X114839726Y-57249675D01*
X114839726Y-57249675D02*
X114850000Y-57259949D01*
%TO.N,/MOSI*%
X114590051Y-55500000D02*
X114850000Y-55759949D01*
X86000000Y-55500000D02*
X114590051Y-55500000D01*
%TO.N,Net-(U4-SDI)*%
X116500000Y-55759949D02*
X117350000Y-56609949D01*
X117350000Y-56609949D02*
X121275000Y-56609949D01*
%TO.N,/SCK*%
X114339726Y-53749675D02*
X114850000Y-54259949D01*
X88953039Y-53749675D02*
X114339726Y-53749675D01*
%TO.N,Net-(U4-SCK)*%
X118200000Y-55959949D02*
X121275000Y-55959949D01*
X116500000Y-54259949D02*
X118200000Y-55959949D01*
%TO.N,Net-(U4-~{CS})*%
X119050000Y-55309949D02*
X116500000Y-52759949D01*
X121275000Y-55309949D02*
X119050000Y-55309949D01*
%TO.N,/~{MCP_CS}*%
X62950000Y-53150000D02*
X43070000Y-53150000D01*
X63100000Y-53300000D02*
X62950000Y-53150000D01*
X114090051Y-52000000D02*
X114850000Y-52759949D01*
X86000000Y-52000000D02*
X114090051Y-52000000D01*
X43070000Y-53150000D02*
X39180000Y-49260000D01*
X86000000Y-52000000D02*
X74500000Y-52000000D01*
X74500000Y-52000000D02*
X74400000Y-51900000D01*
%TO.N,/CH2*%
X113300000Y-63200000D02*
X110700000Y-63200000D01*
X108600000Y-65300000D02*
X104950000Y-65300000D01*
X123900000Y-58100000D02*
X126040051Y-55959949D01*
X123900000Y-60400000D02*
X123900000Y-58100000D01*
X103000000Y-67250000D02*
X103000000Y-69500000D01*
X119800000Y-64500000D02*
X123900000Y-60400000D01*
X110700000Y-63200000D02*
X108600000Y-65300000D01*
X113300000Y-63200000D02*
X114600000Y-64500000D01*
X114600000Y-64500000D02*
X119800000Y-64500000D01*
X104950000Y-65300000D02*
X103000000Y-67250000D01*
X126040051Y-55959949D02*
X127000000Y-55959949D01*
%TO.N,/CH3*%
X127000000Y-55309949D02*
X127690051Y-55309949D01*
%TO.N,Net-(Rout1-Pad2)*%
X68835000Y-41905000D02*
X69985000Y-41905000D01*
X68585000Y-41655000D02*
X68835000Y-41905000D01*
X69985000Y-42405000D02*
X69985000Y-41905000D01*
X71845000Y-42405000D02*
X72000000Y-42250000D01*
X69985000Y-42405000D02*
X71845000Y-42405000D01*
%TO.N,Net-(Rset1-Pad2)*%
X69985000Y-40905000D02*
X71845000Y-40905000D01*
X71845000Y-40905000D02*
X72000000Y-40750000D01*
%TO.N,/EnablePower*%
X74088500Y-27095082D02*
X74088500Y-29411500D01*
X66900000Y-50300000D02*
X66900000Y-46900000D01*
X67000000Y-50400000D02*
X66900000Y-50300000D01*
X72975000Y-26750000D02*
X73743418Y-26750000D01*
X73743418Y-26750000D02*
X74088500Y-27095082D01*
X66900000Y-36600000D02*
X66300000Y-37200000D01*
X52690000Y-37910000D02*
X40900000Y-49700000D01*
X67000000Y-50400000D02*
X68150500Y-51550500D01*
X64700000Y-44700000D02*
X64048000Y-44700000D01*
X66300000Y-37200000D02*
X64100000Y-37200000D01*
X68150500Y-51550500D02*
X68150500Y-59025500D01*
X62400000Y-43052000D02*
X62400000Y-38300000D01*
X66900000Y-46900000D02*
X64700000Y-44700000D01*
X62400000Y-38300000D02*
X62010000Y-37910000D01*
X62010000Y-37910000D02*
X52690000Y-37910000D01*
X74088500Y-29411500D02*
X66900000Y-36600000D01*
X64048000Y-44700000D02*
X62400000Y-43052000D01*
%TO.N,/IN1*%
X75000000Y-41273152D02*
X75000000Y-41300000D01*
X76200000Y-40750000D02*
X75523152Y-40750000D01*
X60030000Y-49500000D02*
X60000000Y-49530000D01*
X63500000Y-49500000D02*
X63400000Y-49500000D01*
X75523152Y-40750000D02*
X75000000Y-41273152D01*
X63400000Y-49500000D02*
X63160000Y-49260000D01*
X63160000Y-49260000D02*
X59500000Y-49260000D01*
%TO.N,/IN2*%
X63416634Y-46179931D02*
X61526565Y-48070000D01*
X58310000Y-50610000D02*
X59500000Y-51800000D01*
X59007085Y-48070000D02*
X58310000Y-48767085D01*
X76200000Y-40250000D02*
X75250000Y-40250000D01*
X61526565Y-48070000D02*
X59007085Y-48070000D01*
X58310000Y-48767085D02*
X58310000Y-50610000D01*
X75250000Y-40250000D02*
X75224265Y-40224265D01*
%TO.N,/SCL*%
X128562500Y-44937497D02*
X128499997Y-45000000D01*
X128562500Y-43628699D02*
X128562500Y-44937497D01*
%TO.N,/SDA*%
X49800000Y-25200000D02*
X63900000Y-25200000D01*
X42900000Y-32100000D02*
X49800000Y-25200000D01*
X129300000Y-43716199D02*
X129212500Y-43628699D01*
X129300000Y-45000000D02*
X129300000Y-43716199D01*
D39*
%TO.N,Net-(U9-W2)*%
X125312500Y-37903699D02*
X125312500Y-36803699D01*
X125312500Y-36803699D02*
X124412500Y-35903699D01*
%TO.N,Net-(U9-W1)*%
X125962500Y-44427491D02*
X125962500Y-43628699D01*
X124689991Y-45700000D02*
X125962500Y-44427491D01*
X123800000Y-45700000D02*
X124689991Y-45700000D01*
%TO.N,Net-(PD1-K)*%
X121850000Y-36396985D02*
X118195061Y-32742046D01*
X121850000Y-36816199D02*
X121850000Y-36396985D01*
X121850000Y-36816199D02*
X121850000Y-38616199D01*
X122762500Y-35903699D02*
X121850000Y-36816199D01*
%TO.N,Net-(PD2-K)*%
X122150000Y-44014991D02*
X122150000Y-45700000D01*
X121850000Y-43714991D02*
X122150000Y-44014991D01*
X121510292Y-44054699D02*
X121850000Y-43714991D01*
X121850000Y-43714991D02*
X121850000Y-42841199D01*
X117791250Y-44759949D02*
X118496500Y-44054699D01*
X118496500Y-44054699D02*
X121510292Y-44054699D01*
D40*
%TO.N,/PD1_SIG*%
X124662500Y-38641198D02*
X124662500Y-37903699D01*
D39*
X122500000Y-39489991D02*
X122500000Y-38616199D01*
X122086292Y-39903699D02*
X122500000Y-39489991D01*
X122500000Y-38616199D02*
X123950000Y-38616199D01*
D40*
X132350000Y-38259949D02*
X131667750Y-38942199D01*
X124963501Y-38942199D02*
X124662500Y-38641198D01*
X131667750Y-38942199D02*
X124963501Y-38942199D01*
D39*
X118562500Y-38259949D02*
X120206250Y-39903699D01*
X123950000Y-38616199D02*
X124662500Y-37903699D01*
X120206250Y-39903699D02*
X122086292Y-39903699D01*
%TO.N,/PD2_SIG*%
X121200000Y-42841199D02*
X121200000Y-41967407D01*
X118825000Y-42259949D02*
X119325000Y-41759949D01*
X120056250Y-41759949D02*
X120412500Y-41403699D01*
X125312500Y-42829907D02*
X125312500Y-43628699D01*
X120412500Y-41403699D02*
X121763708Y-41403699D01*
X130700000Y-43667407D02*
X130700000Y-48759949D01*
X129522792Y-42490199D02*
X130700000Y-43667407D01*
X119325000Y-41759949D02*
X120056250Y-41759949D01*
X123886292Y-41403699D02*
X125191296Y-42708704D01*
X125191296Y-42708704D02*
X125409801Y-42490199D01*
X121763708Y-41403699D02*
X123886292Y-41403699D01*
X125409801Y-42490199D02*
X129522792Y-42490199D01*
X121200000Y-41967407D02*
X121763708Y-41403699D01*
X125191296Y-42708704D02*
X125312500Y-42829907D01*
D40*
%TO.N,/CH4*%
X134000000Y-38259949D02*
X134000000Y-39709949D01*
X134000000Y-39709949D02*
X134050000Y-39759949D01*
X134050000Y-51750000D02*
X131140051Y-54659949D01*
X134050000Y-39759949D02*
X134050000Y-51750000D01*
X131140051Y-54659949D02*
X127000000Y-54659949D01*
%TO.N,/CH5*%
X129050000Y-48759949D02*
X129050000Y-49650000D01*
X129050000Y-48759949D02*
X129050000Y-47459949D01*
X129050000Y-47459949D02*
X128850000Y-47259949D01*
X129050000Y-49659949D02*
X129050000Y-48759949D01*
X127000000Y-51700000D02*
X127000000Y-54009949D01*
X129050000Y-49650000D02*
X127700000Y-51000000D01*
X127400000Y-51300000D02*
X127000000Y-51700000D01*
%TO.N,Net-(JP1-C)*%
X64595000Y-41905000D02*
X64500000Y-42000000D01*
X67185000Y-41905000D02*
X64595000Y-41905000D01*
X67185000Y-42405000D02*
X67185000Y-41905000D01*
%TO.N,/Thermistor_On*%
X100850000Y-71000000D02*
X100500000Y-71000000D01*
X89590000Y-65690000D02*
X94000000Y-70100000D01*
X39180000Y-54340000D02*
X44740000Y-54340000D01*
X44740000Y-54340000D02*
X56090000Y-65690000D01*
X99600000Y-70100000D02*
X100500000Y-71000000D01*
X101000000Y-71150000D02*
X103000000Y-71150000D01*
X100850000Y-71000000D02*
X101000000Y-71150000D01*
X108800000Y-71150000D02*
X110200000Y-69750000D01*
X94000000Y-70100000D02*
X99600000Y-70100000D01*
X103000000Y-71150000D02*
X108800000Y-71150000D01*
X110200000Y-69750000D02*
X112000000Y-69750000D01*
X56090000Y-65690000D02*
X89590000Y-65690000D01*
%TD*%
M02*
